<svg xmlns="http://www.w3.org/2000/svg" xmlns:xlink="http://www.w3.org/1999/xlink" id="&#x30EC;&#x30A4;&#x30E4;&#x30FC;_1" x="0px" y="0px" viewBox="0 0 110.4 38" style="enable-background:new 0 0 110.4 38;" xml:space="preserve"><style type="text/css">	.st0{fill:#FFFFFF;filter:url(#Adobe_OpacityMaskFilter);}	.st1{mask:url(#mask0_360_2_00000089566393874372453720000000674685784334834620_);}	.st2{fill:#040000;}	.st3{fill:#FFFFFF;filter:url(#Adobe_OpacityMaskFilter_00000006686952909440952300000009766228912367214524_);}	.st4{mask:url(#mask2_111_2063_00000036943214731683757050000000484603704766531516_);}	.st5{fill:#FFFFFF;filter:url(#Adobe_OpacityMaskFilter_00000139989676647214211600000015783290502932064389_);}	.st6{mask:url(#mask3_111_2063_00000083777690963360996490000013102265965653301404_);}	.st7{fill:none;}	.st8{fill:#FFFFFF;filter:url(#Adobe_OpacityMaskFilter_00000050664013507276487430000002389120998604012950_);}	.st9{mask:url(#mask4_111_2063_00000181800394963407047510000012762712106527822734_);}	.st10{fill:#FFFFFF;filter:url(#Adobe_OpacityMaskFilter_00000079472022735415206450000016403983247060758670_);}	.st11{mask:url(#mask5_111_2063_00000005959246910900517050000005116601725703589532_);}	.st12{fill:#FFFFFF;filter:url(#Adobe_OpacityMaskFilter_00000173149586649324535640000011763765604703175836_);}	.st13{mask:url(#mask6_111_2063_00000026121323247728997070000006103505975160005297_);}	.st14{fill:#FFFFFF;filter:url(#Adobe_OpacityMaskFilter_00000114790613563601248910000013410028422316507019_);}	.st15{mask:url(#mask7_111_2063_00000079444152465730926970000001265814543523323832_);}	.st16{fill:#FFFFFF;filter:url(#Adobe_OpacityMaskFilter_00000021835655980744498860000015215160834584571267_);}	.st17{mask:url(#mask16_111_2063_00000111184136296451955030000005895636585076070828_);}	.st18{fill:#FFFFFF;filter:url(#Adobe_OpacityMaskFilter_00000159469211492712675740000015726441320341208252_);}	.st19{mask:url(#mask17_111_2063_00000120560176231612712870000000236035795993519784_);}	.st20{fill:#FFFFFF;filter:url(#Adobe_OpacityMaskFilter_00000049199922849120024420000008791127463771572654_);}	.st21{mask:url(#mask18_111_2063_00000053527067958537926410000017055848044946632894_);}	.st22{fill:#FFFFFF;filter:url(#Adobe_OpacityMaskFilter_00000168822740963745845070000016436546459094791050_);}	.st23{mask:url(#mask19_111_2063_00000165949526611275861110000013579156274335689398_);}	.st24{fill:#FFFFFF;filter:url(#Adobe_OpacityMaskFilter_00000034059092643425766770000007798979733131661226_);}	.st25{mask:url(#mask20_111_2063_00000148643285644763592380000000949655983862577296_);}	.st26{fill:#FFFFFF;filter:url(#Adobe_OpacityMaskFilter_00000181066642873595677200000002491802998400406202_);}	.st27{mask:url(#mask21_111_2063_00000062168824773366245260000015976463414746706324_);}	.st28{fill:#FFFFFF;filter:url(#Adobe_OpacityMaskFilter_00000164513605910379215480000014683368339652628670_);}	.st29{mask:url(#mask22_111_2063_00000126295778944094345120000002989069563071171769_);}	.st30{fill:#FFFFFF;filter:url(#Adobe_OpacityMaskFilter_00000147918623855355742540000005536468434262130574_);}	.st31{mask:url(#mask23_111_2063_00000080927025770813985860000009231696422177842336_);}	.st32{fill:#FFFFFF;filter:url(#Adobe_OpacityMaskFilter_00000049938424326461583750000013427420850326001035_);}	.st33{mask:url(#mask24_111_2063_00000003099285216343961640000013552443725801300105_);}	.st34{fill:#FFFFFF;filter:url(#Adobe_OpacityMaskFilter_00000129168313328382389560000014169534324839938693_);}	.st35{mask:url(#mask25_111_2063_00000023972235266738235210000010407783224257942409_);}	.st36{fill:#FFFFFF;filter:url(#Adobe_OpacityMaskFilter_00000062889967179220940090000012645765974005922957_);}	.st37{mask:url(#mask26_111_2063_00000008146546106807328150000008271674120534580144_);}	.st38{fill:#FFFFFF;filter:url(#Adobe_OpacityMaskFilter_00000071520231224898731060000015714714442998910086_);}	.st39{mask:url(#mask27_111_2063_00000101079552377553499010000012735308182935751309_);}	.st40{fill:#FFFFFF;filter:url(#Adobe_OpacityMaskFilter_00000164477173031566921820000006082730222203694009_);}	.st41{mask:url(#mask28_111_2063_00000111870087990783311850000006140111728545671353_);}	.st42{fill:#FFFFFF;filter:url(#Adobe_OpacityMaskFilter_00000030445997194662594070000012825882063093353877_);}	.st43{mask:url(#mask29_111_2063_00000088855948528755582330000013077197647573720251_);}	.st44{fill:#FFFFFF;filter:url(#Adobe_OpacityMaskFilter_00000049910038197925962250000003020623107729459637_);}	.st45{mask:url(#mask30_111_2063_00000021111344664941415640000005797443737756727949_);}	.st46{fill:#FFFFFF;filter:url(#Adobe_OpacityMaskFilter_00000181765799503984500030000013876910808391931788_);}	.st47{mask:url(#mask31_111_2063_00000139285812594989500640000000692481946302376345_);}	.st48{fill:#FFFFFF;filter:url(#Adobe_OpacityMaskFilter_00000028320391358216916730000002987382783478592915_);}	.st49{mask:url(#mask32_111_2063_00000056413686653049515880000003528295975419862966_);}	.st50{fill:#FFFFFF;filter:url(#Adobe_OpacityMaskFilter_00000040574946085295838220000014414539277933364364_);}	.st51{mask:url(#mask33_111_2063_00000074432074150908885640000006071721516940378529_);}	.st52{fill:#FFFFFF;filter:url(#Adobe_OpacityMaskFilter_00000127030995218670429400000016953639236918700425_);}	.st53{mask:url(#mask34_111_2063_00000103228705200516002220000007815801710170567816_);}	.st54{fill:#FFFFFF;filter:url(#Adobe_OpacityMaskFilter_00000152246580585722866310000006146486473485957785_);}	.st55{mask:url(#mask35_111_2063_00000137850271218650407620000013151638734669956252_);}	.st56{fill:#FFFFFF;filter:url(#Adobe_OpacityMaskFilter_00000157297160740440072930000011695026190929970863_);}	.st57{mask:url(#mask36_111_2063_00000088133100248858425980000013333805296026182077_);}	.st58{fill:#FFFFFF;filter:url(#Adobe_OpacityMaskFilter_00000019653356094569923200000004839748844243932576_);}	.st59{mask:url(#mask37_111_2063_00000169544880659565506190000006507705036752757120_);}	.st60{fill:#FFFFFF;filter:url(#Adobe_OpacityMaskFilter_00000114063539883387234590000009506857829487845292_);}	.st61{mask:url(#mask38_111_2063_00000081644815840081073880000007288555629302118784_);}	.st62{fill:#FFFFFF;filter:url(#Adobe_OpacityMaskFilter_00000021833711323543037130000015221708198779049351_);}	.st63{mask:url(#mask39_111_2063_00000042710060643111713570000017201875130089647755_);}	.st64{fill:#FFFFFF;filter:url(#Adobe_OpacityMaskFilter_00000151509663368163461100000018064332133248926102_);}	.st65{mask:url(#mask40_111_2063_00000013172299408477278240000017810204719920912781_);}	.st66{fill:#FFFFFF;filter:url(#Adobe_OpacityMaskFilter_00000000906526815417365860000007832332731600899729_);}	.st67{mask:url(#mask41_111_2063_00000162313941665532128980000007331750117165975487_);}	.st68{fill:#FFFFFF;filter:url(#Adobe_OpacityMaskFilter_00000178199016642393558710000006868250945575895461_);}	.st69{mask:url(#mask42_111_2063_00000018923057764261000540000009937491884378890159_);}	.st70{fill:#FFFFFF;filter:url(#Adobe_OpacityMaskFilter_00000183938529478540645050000017121286436219676848_);}	.st71{mask:url(#mask43_111_2063_00000087378592560660092280000007885903300252680110_);}	.st72{fill:#FFFFFF;filter:url(#Adobe_OpacityMaskFilter_00000181063280172859395270000001502883713398801033_);}	.st73{mask:url(#mask44_111_2063_00000042727756942961392490000000780888680608568454_);}	.st74{fill:#FFFFFF;filter:url(#Adobe_OpacityMaskFilter_00000104683364751849183800000010181813531158166185_);}	.st75{mask:url(#mask45_111_2063_00000007408106761410739220000008019863515307266952_);}	.st76{fill:#FFFFFF;filter:url(#Adobe_OpacityMaskFilter_00000142150103588564633920000009422181852217963432_);}	.st77{mask:url(#mask46_111_2063_00000052798231997840658990000002028407790290776716_);}	.st78{fill:#FFFFFF;filter:url(#Adobe_OpacityMaskFilter_00000103239242678529264240000010647229286726047887_);}	.st79{mask:url(#mask47_111_2063_00000047759408333714878360000012472031939228085160_);}	.st80{fill:#FFFFFF;filter:url(#Adobe_OpacityMaskFilter_00000094611051628541011240000002507974753208565384_);}	.st81{mask:url(#mask48_111_2063_00000034803132327212093540000017441452367222658489_);}	.st82{fill:#FFFFFF;filter:url(#Adobe_OpacityMaskFilter_00000163779116423706782610000016816483625114686854_);}	.st83{mask:url(#mask49_111_2063_00000128450852646381513260000014752535185120213916_);}	.st84{fill:#FFFFFF;filter:url(#Adobe_OpacityMaskFilter_00000086675737268104029990000008785796718926623639_);}	.st85{mask:url(#mask50_111_2063_00000145760555590410926720000018407745225163573944_);}	.st86{fill:#FFFFFF;filter:url(#Adobe_OpacityMaskFilter_00000061442135133509821770000002067738656982176702_);}	.st87{mask:url(#mask51_111_2063_00000083063157027641367740000014190840174520244150_);}</style><g>	<defs>		<filter id="Adobe_OpacityMaskFilter" filterUnits="userSpaceOnUse" x="-9.7" y="-8.7" width="55" height="56">					</filter>	</defs>			<mask maskUnits="userSpaceOnUse" x="-9.7" y="-8.7" width="55" height="56" id="mask0_360_2_00000089566393874372453720000000674685784334834620_">		<path class="st0" d="M20.6,34h-2c-7.9,0-14.3-6.4-14.3-14.3v-1.6c0-7.7,6.3-14.1,14.1-14.1h2.4c7.4,0,13.5,6.4,13.5,13.8l0,1.5   C34.4,27,28.2,34,20.6,34z"></path>	</mask>	<g class="st1">		<path d="M32.3,17.2c0,2.6-2.9,4.9-6.2,4.9h-6.3h-5.3c-1.4,0-2.5,0.8-2.5,1.9c0,1,1.1,1.9,2.5,1.9h28.3V25H14.6   c-0.8,0-1.5-0.4-1.5-1c0-0.5,0.7-1,1.5-1h3.7h7.9c1.8,0,3.6-0.6,5-1.8c1.3-1.1,2.1-2.6,2.1-4.1c0-1.5-0.8-3-2.1-4.1   c-1.4-1.2-3.1-1.9-5-1.9H-1.7v0.9h27.9C29.7,12.2,32.3,14.9,32.3,17.2z"></path>		<path d="M8.1,23.8c0-2.5,3-4.7,6.5-4.7h11.6c1.3,0,2.4-0.8,2.4-1.9c0-1-1.1-1.9-2.4-1.9H-2.2v0.9h28.4c0.8,0,1.5,0.4,1.5,1   c0,0.5-0.7,1-1.5,1H14.5c-4,0-7.4,2.6-7.4,5.6c0,3.3,3.4,6.3,7.4,6.3h28.3v-0.9H14.5C11,29.1,8.1,26.6,8.1,23.8L8.1,23.8z"></path>		<path d="M9.7,23.8L9.7,23.8c0-1.8,2.2-3.4,4.8-3.4h11.6c1,0,2-0.3,2.8-0.9c0.8-0.6,1.2-1.4,1.2-2.3c0-0.8-0.4-1.7-1.2-2.3   c-0.8-0.6-1.7-1-2.8-1H-7.1v0.9h33.2c1.6,0,3,1.1,3,2.3c0,1.2-1.4,2.3-3,2.3H14.5c-1.5,0-2.9,0.4-4,1.2c-1.1,0.8-1.7,1.9-1.7,3.1   v0c0,2.3,2.2,4.8,5.8,4.8h28.3v-0.9H14.5C11.6,27.7,9.7,25.7,9.7,23.8z"></path>		<path d="M14.5,26.3c-1.8,0-3.2-1.2-3.2-2.4v-0.1c0-1.1,1.5-2.1,3.2-2.1h11.6c2.9,0,5.5-2.1,5.5-4.5s-2.6-4.6-5.5-4.6l-27.9,0   l0,0.9h27.9c2.6,0,4.6,2,4.6,3.7c0,2.1-2.4,3.6-4.6,3.6H14.5c-2.3,0-4.1,1.4-4.1,3V24c0,1.8,1.9,3.3,4.1,3.3h28.4v-0.9H14.5z"></path>		<path d="M24.4,37.3c0,2.6-2.9,4.9-6.2,4.9h-6.3H6.6c-1.4,0-2.5,0.8-2.5,1.9c0,1,1.1,1.9,2.5,1.9h28.3V45H6.6c-0.8,0-1.5-0.4-1.5-1   c0-0.5,0.7-1,1.5-1h3.7h7.9c1.8,0,3.6-0.6,5-1.8c1.3-1.1,2.1-2.6,2.1-4.1c0-1.5-0.8-3-2.1-4.1c-1.4-1.2-3.1-1.8-5-1.8H-9.7v0.9   h27.9C21.7,32.3,24.4,34.9,24.4,37.3L24.4,37.3z"></path>		<path d="M6.6,46.4c-1.8,0-3.2-1.2-3.2-2.4v-0.1c0-1.1,1.5-2.1,3.2-2.1H8h10.2c2.9,0,5.5-2.1,5.5-4.5c0-2.4-2.6-4.6-5.5-4.6H-9.7   v0.9h27.9c2.6,0,4.6,1.9,4.6,3.6c0,2.1-2.4,3.6-4.6,3.6h-6.3H6.6c-2.3,0-4.1,1.4-4.1,3V44c0,1.8,1.9,3.3,4.1,3.3H35v-0.9L6.6,46.4   L6.6,46.4z"></path>		<path d="M34.7-2.8c0,2.6-2.9,4.9-6.2,4.9h-6.3H17c-1.4,0-2.5,0.8-2.5,1.9s1.1,1.9,2.5,1.9h28.3V5H17c-0.8,0-1.5-0.4-1.5-1   s0.7-1,1.5-1h3.7h7.9c1.8,0,3.6-0.6,5-1.8c1.3-1.1,2.1-2.6,2.1-4.1c0-1.5-0.8-3-2.1-4.1c-1.4-1.2-3.1-1.8-5-1.8H0.7v0.9h27.9   C32.1-7.8,34.7-5.2,34.7-2.8L34.7-2.8z"></path>		<path d="M10.5,3.7c0-2.5,3-4.7,6.5-4.7h5.3h6.3c1.3,0,2.4-0.8,2.4-1.9s-1.1-1.9-2.4-1.9H0.2v0.9h28.4c0.8,0,1.5,0.4,1.5,1   s-0.7,1-1.5,1H18h-1.1c-4,0-7.4,2.6-7.4,5.6c0,3.3,3.4,6.1,7.4,6.1h28.3V8.9H16.9C13.4,8.9,10.5,6.5,10.5,3.7L10.5,3.7z"></path>		<path d="M12.1,3.8L12.1,3.8c0-1.8,2.2-3.4,4.8-3.4h5.6h6.1c1,0,2-0.3,2.8-1c0.8-0.6,1.2-1.4,1.2-2.3s-0.4-1.7-1.2-2.3   c-0.8-0.6-1.7-1-2.8-1H-4.7v0.9h33.2c1.6,0,3,1.1,3,2.3c0,1.2-1.4,2.3-3,2.3H19h-2.1c-1.5,0-2.9,0.4-4,1.2   c-1.1,0.8-1.7,1.9-1.7,3.1v0c0,2.3,2.2,4.8,5.8,4.8h28.3V7.6H16.9C13.9,7.6,12.1,5.6,12.1,3.8L12.1,3.8z"></path>		<path d="M16.9,6.3c-1.8,0-3.2-1.2-3.2-2.4V3.8c0-1.1,1.5-2.1,3.2-2.1h1.4h10.2c2.9,0,5.5-2.1,5.5-4.5c0-2.4-2.6-4.6-5.5-4.6H0.7   v0.9h27.9c2.6,0,4.6,1.9,4.6,3.6c0,2.1-2.4,3.6-4.6,3.6h-6.3h-5.3c-2.3,0-4.1,1.4-4.1,3v0.1c0,1.8,1.9,3.3,4.1,3.3h28.4V6.3   L16.9,6.3L16.9,6.3z"></path>	</g>	<path d="M20.8,37.6h-2.2c-9.8,0-17.9-8-17.9-17.8V18c0-9.7,7.9-17.6,17.6-17.6H21c4.5,0,8.8,1.8,12,5.2c3.2,3.3,5,7.7,5,12.1l0,1.7  c0,4.5-1.8,9.1-5,12.6C29.6,35.6,25.3,37.6,20.8,37.6L20.8,37.6z M18.3,3.3c-3.9,0-7.6,1.5-10.4,4.3C5.1,10.4,3.6,14.1,3.6,18v1.9  c0,4,1.6,7.7,4.4,10.5c2.8,2.8,6.6,4.4,10.6,4.4h2.3c3.7,0,7.3-1.7,10-4.6c2.7-2.9,4.3-6.8,4.3-10.6l0-1.8c0-7.8-6.4-14.4-14-14.4  L18.3,3.3L18.3,3.3z"></path></g><g>	<g>		<path class="st2" d="M70,10.5L70,10.5C70,10.5,70,10.5,70,10.5z M50.2,13.3C50.2,13.3,50.2,13.3,50.2,13.3L50.2,13.3L50.2,13.3z    M49.9,13.5L49.9,13.5C49.9,13.5,49.9,13.5,49.9,13.5 M63.5,13.8C63.5,13.8,63.5,13.8,63.5,13.8L63.5,13.8   C63.5,13.8,63.5,13.8,63.5,13.8z M59.6,6.5L59.6,6.5L59.6,6.5L59.6,6.5L59.6,6.5 M63.2,7.5L63.2,7.5L63.2,7.5L63.2,7.5L63.2,7.5    M62.9,7.6C62.9,7.7,63,7.7,62.9,7.6C63,7.6,63,7.6,62.9,7.6C62.9,7.6,62.9,7.6,62.9,7.6C62.9,7.6,62.9,7.6,62.9,7.6L62.9,7.6   C62.9,7.6,62.9,7.6,62.9,7.6z M62.6,7.8L62.6,7.8L62.6,7.8L62.6,7.8L62.6,7.8 M62.4,7.9L62.4,7.9L62.4,7.9L62.4,7.9L62.4,7.9   L62.4,7.9z M62.2,8L62.2,8L62.2,8L62.2,8L62.2,8z M59.4,9.2L59.4,9.2L59.4,9.2L59.4,9.2L59.4,9.2L59.4,9.2 M72.8,10.2   C72.8,10.2,72.8,10.2,72.8,10.2L72.8,10.2L72.8,10.2L72.8,10.2C72.8,10.2,72.8,10.2,72.8,10.2 M71.8,10.3   c-0.1,0.1-0.2,0.1-0.3,0.2c-0.1,0-0.1,0.1-0.2,0.2c0,0,0,0.1,0,0.2c0.1-0.1,0.3-0.1,0.4-0.2c0-0.1,0-0.1,0-0.2c0,0,0.1,0,0.1,0   c0,0,0,0,0,0c0,0,0.1,0,0.1,0C71.9,10.4,71.8,10.4,71.8,10.3 M71.1,10.8L71.1,10.8L71.1,10.8L71.1,10.8L71.1,10.8 M55.9,11.8   L55.9,11.8L55.9,11.8L55.9,11.8z M52.1,11.9C52,12,52,12,52,12.1C52.1,12,52.1,12,52.1,11.9z M51.8,12   C51.8,12.1,51.8,12.1,51.8,12c-0.1,0.1-0.1,0.1-0.1,0.2c0.1,0,0.2-0.1,0.3-0.1L51.8,12z M51.5,12.2c0,0.1-0.1,0.2-0.1,0.3   C51.5,12.4,51.5,12.3,51.5,12.2C51.6,12.2,51.5,12.2,51.5,12.2z M53.8,12.5L53.8,12.5L53.8,12.5L53.8,12.5 M52,12.5L52,12.5   L52,12.5L52,12.5L52,12.5z M51,12.6L51,12.6L51,12.6L51,12.6z M61.3,13.1L61.3,13.1L61.3,13.1L61.3,13.1L61.3,13.1z M50.1,13.3   L50.1,13.3c0,0,0.1,0,0.1,0C50.2,13.3,50.1,13.3,50.1,13.3L50.1,13.3z M60,13.6L60,13.6c-0.1,0-0.1,0.1,0,0.1l0,0   C60,13.7,60,13.6,60,13.6L60,13.6 M68.3,14c-0.2,0-0.3,0-0.3,0.2C68.2,14.2,68.3,14.1,68.3,14z M67.6,14.3   C67.6,14.4,67.6,14.4,67.6,14.3c0.1,0,0.1,0,0.2,0C67.7,14.3,67.6,14.3,67.6,14.3 M67.6,14.3c0,0.1-0.1,0.1-0.1,0.1   C67.6,14.5,67.6,14.5,67.6,14.3z M67.8,14.5L67.8,14.5L67.8,14.5L67.8,14.5L67.8,14.5 M66.2,15.5L66.2,15.5L66.2,15.5L66.2,15.5    M56.9,16.7c0,0-0.1,0-0.1,0l0,0C56.8,16.8,56.8,16.7,56.9,16.7L56.9,16.7L56.9,16.7z M60.7,17.1L60.7,17.1L60.7,17.1L60.7,17.1   L60.7,17.1z M60.5,17.8c0-0.1,0-0.1,0-0.1C60.5,17.7,60.5,17.7,60.5,17.8z M60.5,18L60.5,18L60.5,18L60.5,18c0,0,0-0.1,0-0.1l0,0   L60.5,18C60.4,17.9,60.4,18,60.5,18L60.5,18 M60.6,20.8C60.6,20.8,60.6,20.9,60.6,20.8v0.1V20.8L60.6,20.8z M60.7,21.2L60.7,21.2   L60.7,21.2L60.7,21.2L60.7,21.2 M60.3,22.7L60.3,22.7L60.3,22.7L60.3,22.7 M60.4,23.9L60.4,23.9L60.4,23.9L60.4,23.9 M60.4,24.2   L60.4,24.2L60.4,24.2L60.4,24.2L60.4,24.2 M59.3,31.7L59.3,31.7L59.3,31.7L59.3,31.7L59.3,31.7 M58.9,32.6c-0.1,0.1-0.1,0.2,0,0.3   C58.9,32.8,58.9,32.7,58.9,32.6z M58.8,33.1L58.8,33.1c-0.1,0.1,0,0.2,0,0.2c0,0,0.1,0,0.1,0C58.8,33.3,58.8,33.2,58.8,33.1   L58.8,33.1 M59.9,36.4c0-0.2,0-0.4,0-0.5c0-0.3,0-0.7,0-1c0,0,0-0.1-0.1-0.1c-0.1-0.1-0.1-0.3-0.1-0.4c0-0.1,0.1-0.3-0.1-0.4   c0-0.2-0.1-0.3,0-0.5c0.1-0.4,0.1-0.7,0.1-1.1c0-0.1,0-0.2,0-0.2c0-0.1,0-0.1-0.1-0.2c0,0.2,0,0.4-0.1,0.6c0,0,0,0.1,0,0.1   c0,0-0.1,0-0.1,0c0-0.3-0.1-0.5-0.1-0.8c-0.2,0.1-0.2,0.1-0.2,0.3c0,0,0,0.1,0,0.1l-0.1,0l-0.1,0c0,0-0.1,0-0.1-0.1   c0,0-0.1,0-0.1,0.1c0,0.1,0,0.2,0.1,0.3c0-0.1,0.1-0.1,0.1-0.2c0,0,0,0,0.1,0c0,0,0,0,0.1,0c0,0,0.1,0,0.1,0c0,0,0,0.1,0,0.1   c-0.1,0.1-0.1,0.3-0.1,0.4c0,0.1,0,0.2,0,0.3c-0.1,0-0.1,0-0.2,0.1v0.1c0,0-0.1,0-0.1,0c0,0-0.1,0-0.1,0.1c-0.1-0.1,0-0.2,0-0.3   c0-0.1,0-0.2-0.1-0.2c0,0,0,0-0.1,0c-0.1,0-0.1,0-0.1,0.1c0,0-0.1,0.1-0.1,0.2c0-0.1,0-0.1,0-0.2c0-0.1,0-0.1,0-0.2   c-0.1,0-0.1-0.1-0.1-0.2c0-0.1,0-0.2,0-0.4c0-0.1,0-0.2-0.1-0.3c0-0.2,0-0.4-0.2-0.6c0,0-0.1-0.1-0.1-0.1c0-0.2-0.2-0.4-0.4-0.5   c0,0-0.1-0.1-0.1-0.1c-0.1-0.1-0.1-0.2-0.2-0.3c0-0.1-0.1-0.2-0.2-0.3c0-0.1-0.1-0.3,0-0.4c0-0.1,0-0.1,0.1-0.2c0,0,0-0.1-0.1-0.1   c0-0.1,0-0.2,0.1-0.2c0.1-0.1,0.1-0.2,0.1-0.3c0-0.2,0.1-0.4,0.1-0.7c0-0.1-0.2-0.1-0.2-0.2c0-0.1,0-0.2,0-0.3h0.1   c0.1-0.2,0.2-0.5,0.5-0.5c0,0,0,0,0,0c0.1-0.1,0.1-0.2,0.2-0.2c0.1-0.1,0.1-0.2,0.1-0.3c0-0.2,0-0.3,0-0.5c0,0,0-0.1,0-0.1   c0,0,0,0,0,0c0,0,0,0,0,0c0,0,0,0,0.1,0c0,0,0.1,0,0.1-0.1c0-0.1,0-0.2,0-0.2c-0.1-0.4,0-0.9-0.1-1.3c0-0.1,0-0.3,0-0.4   c0-0.1,0-0.3-0.1-0.4c0,0-0.1,0.1-0.1,0.1c0,0.1,0,0.3,0,0.4c0,0.1,0,0.1,0,0.2c0-0.1-0.1-0.2-0.1-0.3c0-0.2,0-0.3,0-0.5   c0-0.2,0-0.3,0-0.5c0-0.1,0-0.2,0-0.3c-0.1,0.1-0.1,0.2-0.1,0.3c-0.1,0.5,0,0.9,0,1.4c0,0.1,0,0.2,0,0.2c0,0,0,0.1,0,0.1   c-0.2,0.2-0.1,0.5-0.1,0.7c0,0.3,0,0.6-0.1,0.9c-0.1-0.1,0-0.2,0-0.3c0-0.1,0-0.2,0-0.3c0-0.5,0-1.1,0-1.6c0-0.1,0-0.2,0-0.3   c0-0.3,0-0.6,0-0.9c0-0.4-0.1-0.8-0.1-1.2c0,0-0.1,0-0.1,0c-0.1-0.1-0.1-0.3-0.1-0.5c0,0,0,0,0-0.1C56.8,21,56.7,21,56.6,21   c-0.1,0-0.1,0-0.3,0c-0.1,0-0.1,0-0.1,0c0,0,0,0,0,0c0,0-0.1,0-0.1,0c-0.2,0-0.4,0.1-0.6,0.2c-0.1,0.1-0.2,0.1-0.4,0.2   c-0.2,0.1-0.3,0.1-0.5,0.2c-0.2,0.1-0.3,0.1-0.5,0.2c-0.2,0.1-0.4,0.2-0.6,0.3c-0.2,0.1-0.5,0.2-0.7,0.2c-0.1,0-0.2,0.1-0.2,0.2   c-0.1,0.3-0.3,0.4-0.5,0.6c-0.2,0.2-0.4,0.3-0.7,0.3c0,0,0,0,0,0c0,0,0,0,0,0c-0.1,0-0.2,0-0.3,0.1c-0.1,0-0.2-0.1-0.2-0.1   c0,0,0,0-0.1,0c-0.1,0-0.2,0.1-0.3,0.1c0-0.1,0-0.1-0.1-0.2c-0.1,0-0.1,0.1-0.2,0.1c-0.1,0-0.3-0.1-0.4-0.1   c-0.2-0.1-0.4-0.2-0.6-0.3c-0.1-0.1-0.3-0.1-0.4-0.3c0,0-0.1-0.1-0.1-0.1c-0.1,0-0.2-0.1-0.3-0.2c-0.1-0.1-0.2-0.1-0.3-0.2   c-0.1-0.1-0.3-0.2-0.4-0.2c-0.2,0-0.4,0-0.6-0.1c0-0.1-0.1-0.1-0.1-0.2c0,0-0.1,0-0.2,0c-0.3,0-0.5-0.1-0.6-0.4   c-0.2-0.3-0.4-0.5-0.6-0.7c-0.2-0.1-0.3-0.3-0.4-0.5c0-0.1,0.1-0.1,0.1-0.2c0.1-0.2,0.2-0.4,0.5-0.4l0.1,0c0,0,0.1-0.1,0-0.1   l0-0.1c0.2-0.1,0.3-0.2,0.5-0.4c0,0,0-0.1,0-0.2c0.1-0.1,0.1-0.1,0.2-0.1c0,0,0.1,0,0.1,0c0,0,0,0,0.1,0c0,0,0.1,0,0.1,0   c0.1,0,0.1,0,0.2,0c0,0,0.1,0,0.1,0c0,0,0,0,0.1,0c0,0,0.1,0,0.1,0c0,0,0.1,0,0.1,0c0.1,0,0.1,0,0.2,0c0.1-0.1,0-0.2,0.1-0.3   c0.1,0,0.1,0,0.2,0c0,0,0,0,0.1,0c0,0,0.1,0,0.1,0c0.1,0,0.2-0.1,0.2-0.1c0,0,0.1-0.1,0.1-0.1c0,0,0,0.1,0,0.1c0,0,0,0.1,0,0.1   c0,0,0.1,0,0.1,0c0.1-0.1,0.2-0.1,0.3-0.2c0,0,0.1,0,0.2,0c0.1,0,0.2-0.1,0.3-0.2c0-0.1,0.1-0.1,0.1-0.1c0,0,0,0,0.1,0   c0,0,0,0,0,0c0,0,0.1,0,0.1-0.1c0,0,0.1-0.1,0.1-0.1c0,0,0,0,0,0.1c0,0,0,0.1,0,0.1c-0.1,0.2-0.2,0.2-0.1,0.5   c0.1,0,0.1-0.1,0.2-0.1c0,0,0,0,0,0c0,0,0,0.1,0,0.1c0,0,0,0.1,0,0.1c0.2,0.1,0.3,0.1,0.5,0.2c0.1,0,0.1,0,0.2,0c0,0,0,0,0.1,0   c0,0,0,0,0,0c0.1-0.1,0.2-0.1,0.3-0.1c0.1,0,0.1,0,0.2,0c0-0.1,0.1-0.1,0.1-0.2c0,0,0.1,0,0.2,0c0,0,0.1-0.1,0.1-0.1l0,0   c0.1,0,0.3-0.1,0.4-0.1c0,0,0.1,0,0.1,0c0,0,0.1,0,0.1,0c0,0,0.1,0,0.1,0c0.1,0,0.1,0,0.1-0.1c0.1-0.1,0.1-0.1,0.2-0.1   c0.2,0,0.3-0.1,0.4-0.2c0.1,0,0.2,0,0.3-0.1c0,0,0,0,0,0c0,0,0.1,0,0.1,0c0,0,0.1,0,0.1,0c0,0,0.1,0,0.1,0c0,0,0-0.1,0-0.1   c0.2,0,0.4-0.1,0.6-0.2c0.1-0.1,0.3-0.1,0.4-0.1c0.2-0.1,0.4-0.2,0.7-0.2l0.1,0c0.6-0.3,1.3-0.6,1.9-0.9c0.2-0.1,0.2-0.2,0.2-0.4   c0-0.1,0-0.1,0-0.2c0-0.1,0-0.1,0-0.2c0,0,0.1,0,0.1-0.1c0.1-0.1,0.1-0.2,0-0.3c0,0-0.1,0-0.1-0.1c0-0.1,0-0.1,0-0.2   c0-0.1-0.1-0.1-0.1-0.1c0.1-0.2,0.1-0.3,0.1-0.5c0-0.1,0.1-0.1,0.1-0.2c0.1-0.1,0.1-0.3,0.1-0.4c0-0.2,0.1-0.5,0.2-0.7   c0,0,0,0,0-0.1c0.1-0.2,0.2-0.3,0.2-0.6c0.1,0,0.1,0,0.1,0.1c0.1,0,0.1,0.1,0.2,0.1c0.1,0,0.1,0,0.2-0.1c0.1-0.1,0.1-0.2,0.2-0.2   l0,0c0.1,0.1,0.1,0.1,0.1,0.2c0,0.1,0.1,0.2,0.1,0.4c0,0.1,0.1,0.1,0.2,0.1c0,0,0,0,0,0c0.1,0,0.1,0,0.2-0.1   c0-0.1,0.1-0.3,0.1-0.4c0-0.1,0.1-0.2,0.1-0.3c0-0.1,0.1-0.2,0.1-0.3c0,0,0.1-0.1,0.2-0.1c0,0.1,0.1,0.3,0.1,0.4c0,0,0,0.1,0,0.1   c0,0.1,0.1,0.1,0.2,0.1c0,0,0,0,0,0c0.1,0,0.2-0.1,0.2-0.1c0-0.3,0.2-0.5,0.1-0.7c0-0.1,0-0.2,0.1-0.4c0.1-0.1,0-0.3,0.1-0.4   c0-0.1-0.1-0.1-0.2-0.1c0,0,0,0,0,0c-0.4,0.1-0.7,0.1-1,0.3c-0.3,0.2-0.7,0.4-1,0.5c-0.1,0-0.2,0.1-0.2,0.2c0,0-0.1,0.1-0.1,0.1   c-0.1,0-0.1,0.1-0.2,0.2c-0.1,0-0.2,0-0.3-0.1c-0.1,0-0.3,0.1-0.3,0.3c-0.1,0-0.2,0.1-0.2,0.1c0-0.1-0.2-0.1-0.3-0.2c0,0,0,0,0,0   c-0.1,0-0.1,0.1-0.1,0.1c0,0.1,0,0.2,0.1,0.3c0,0-0.1,0-0.1,0.1c0,0,0-0.1,0-0.1c-0.1,0-0.1,0-0.2,0.1c0,0-0.1-0.1-0.1-0.1   c-0.1,0-0.2,0-0.3,0c0,0.1,0,0.1,0.1,0.1c0.1,0.1,0,0.1,0,0.1c-0.1,0-0.1,0-0.1,0.1c0,0-0.1,0-0.1-0.1l0,0c-0.1,0-0.1-0.1-0.2-0.1   s-0.1,0-0.2,0.1c0,0-0.1,0.1-0.1,0.1c0,0,0,0-0.1,0c0,0,0-0.1,0.1-0.2c0,0,0.1,0,0.1-0.1c-0.1,0-0.2,0-0.3,0l-0.1,0l0-0.1   c0.1,0,0.2-0.1,0.3-0.1c0.1,0,0.1,0.1,0.2,0.1c0,0,0,0,0,0c0.1,0,0.2,0,0.2-0.2c-0.1,0-0.1,0-0.2,0c0,0,0-0.1-0.1-0.1l-0.1,0   c-0.2,0-0.3,0.2-0.4,0.2c-0.2,0.2-0.4,0.2-0.6,0.4c0,0-0.1,0-0.1,0c0,0-0.1,0-0.1,0c0,0,0,0,0,0c0,0-0.1,0-0.1,0.1   c0,0,0,0.1-0.1,0.1c-0.1,0-0.2,0.1-0.2,0.1c0,0,0,0,0,0c0,0-0.1,0-0.1,0c-0.1,0-0.1,0-0.2,0.1c-0.2,0.1-0.4,0.2-0.5,0.3   c-0.2,0.1-0.4,0.2-0.6,0.3c-0.3,0.1-0.6,0.3-0.9,0.4c-0.1,0.1-0.3,0.1-0.5,0.1c0-0.1,0-0.1,0-0.1c0.1-0.1,0.1-0.1,0.2-0.1   c0.3-0.2,0.5-0.4,0.8-0.5c0.1-0.1,0.2-0.1,0.2-0.2l0.1,0c0,0,0,0,0,0c0.1,0,0.2-0.1,0.2-0.2c0,0,0.1,0,0.1,0c0.1,0,0.1,0,0.2-0.1   c0,0,0.1-0.1,0.1-0.1c0.1,0,0.2-0.1,0.2-0.2c0,0,0.1,0,0.1,0c0,0,0,0,0,0c0.1,0,0.1-0.1,0.1-0.1c0-0.1,0.1-0.1,0.1-0.2   c0,0-0.1,0-0.1,0c0,0,0,0,0,0c-0.2,0.2-0.5,0.2-0.7,0.5c-0.2,0-0.4,0.2-0.6,0.2c-0.1,0-0.1,0.1-0.2,0.1c0,0,0,0,0,0   c0,0,0,0-0.1-0.1c-0.1,0.1-0.3,0.1-0.5,0.1c-0.1,0-0.2,0.1-0.2,0.1c-0.1,0.1-0.2,0.2-0.3,0.2c-0.1,0-0.1,0.1-0.2,0.1   c-0.1,0-0.2-0.1-0.2-0.1c0,0-0.1,0-0.1,0c0,0,0,0.1,0,0.1l0,0c0,0.1-0.1,0.2-0.3,0.2c0,0,0-0.1-0.1-0.1c-0.3,0.1-0.5,0.3-0.8,0.5   c0-0.1,0-0.1,0.1-0.1c0.2-0.2,0.3-0.3,0.6-0.4c0.1,0,0.1-0.1,0.1-0.1c0.1-0.1,0.2-0.2,0.4-0.3c0.1,0,0.2-0.1,0.3-0.2   c0,0,0.1,0,0.1,0c0,0,0,0,0,0c0.1,0,0.2-0.1,0.2-0.2c-0.1,0-0.1,0.1-0.2,0.1l-0.1,0l0-0.1c0.2,0,0.2-0.2,0.4-0.2   c0.1,0,0.2-0.2,0.4-0.2c0-0.1,0.1-0.1,0.1-0.2l0,0.1h0l0-0.1c0,0,0.1,0,0.1,0c0,0,0,0,0,0c0,0,0,0,0,0c0.1-0.1,0.2-0.1,0.3-0.1   c0.1,0,0-0.1,0-0.1c0-0.1,0-0.1,0.1-0.1c0,0,0.1,0.1,0.2,0.1c0.1-0.1,0.3-0.1,0.4-0.2c0,0-0.1,0-0.1,0c0,0-0.1,0-0.1,0   c0,0-0.1,0-0.1,0c0,0,0,0,0,0c0.1-0.1,0.2-0.2,0.3-0.3c0,0,0,0,0.1,0c0,0,0.1,0,0.1,0c0.1,0,0.1,0,0.1,0c0.1,0,0.2-0.1,0.3-0.1   c0,0,0.1-0.1,0.1-0.1c0.1-0.1,0.1-0.2,0.2-0.2c0.1,0,0.1-0.1,0.1-0.1c0-0.1,0-0.2,0.1-0.2c0.1,0,0.1,0,0.2-0.1   c0.1-0.1,0.2-0.2,0.4-0.3c0.3-0.2,0.7-0.4,1-0.7c0.1-0.1,0.3-0.2,0.4-0.3c0.2-0.1,0.4-0.2,0.5-0.3c0.1-0.1,0.3-0.2,0.4-0.3   c0-0.2,0.2-0.3,0.3-0.5c0,0,0.1-0.1,0.1-0.1c0,0,0,0,0,0c0,0,0.1,0,0.1,0c0.1,0,0.2-0.1,0.2-0.2c0.1-0.1,0.2-0.1,0.2-0.1   c0.2-0.1,0.4-0.3,0.5-0.4l0,0c0.1-0.2,0.3-0.3,0.4-0.5l0,0l0-0.1c-0.1-0.1-0.2-0.3-0.3-0.4c-0.1-0.2-0.3-0.4-0.5-0.6   c-0.1-0.1-0.2-0.2-0.3-0.3c0,0,0-0.1-0.1-0.1c0,0,0,0,0.1,0c0,0,0.1,0,0.1,0c0.2,0.2,0.4,0.3,0.6,0.5c0,0,0.1,0.1,0.1,0.1   c0.1,0,0.2,0.1,0.4,0.1c0,0,0,0,0.1,0c0,0,0,0,0,0c0.1,0,0.1,0,0.2,0.1C58.9,6,59,6,59.1,6c0,0,0,0,0,0c-0.3-0.3-0.6-0.6-0.8-0.9   c0,0,0.1-0.1,0.1-0.1c0,0,0,0,0.1,0c0.1,0.1,0.3,0.2,0.4,0.3c0.1,0.1,0.2,0.1,0.3,0.2c0,0,0-0.1,0-0.1c0-0.1-0.1-0.1-0.1-0.2   c-0.1-0.1-0.2-0.2-0.3-0.3c-0.4-0.4-0.7-0.8-1.1-1.2c0-0.1-0.1-0.1-0.1-0.2c0,0,0.1,0,0.1,0c0,0,0,0,0,0c0.4,0.3,0.8,0.6,1.2,0.9   c0.1,0,0.1-0.1,0.2-0.1c0,0,0.1,0,0.2,0c0,0,0,0,0,0c0,0,0,0,0.1,0c0.2,0.1,0.3,0.1,0.5,0.2c0.1,0,0.2,0.1,0.3,0.1   c0.3,0.1,0.7,0.3,1,0.4c0.1,0,0.2,0.1,0.4,0.1c0.1,0,0.2,0,0.3,0.1c0,0,0.1,0,0.1,0c0,0,0,0,0,0c0,0,0.1,0,0.1,0   c0.2,0,0.4,0.1,0.5,0.2c0.1,0,0.1,0,0.2-0.1c0.1,0.1,0.3,0,0.4,0.1c0.1,0,0.1,0.1,0.2,0.1c0,0,0.1,0,0.1,0c0,0,0.1,0,0.1,0   c0.2,0.1,0.4,0.2,0.6,0.2c0,0,0.1,0,0.1,0.1c0,0,0.1,0.1,0.1,0.1c0.1,0,0.2,0.1,0.2,0.2c0.1,0.1,0.1,0.2,0.3,0.2   c0.1,0,0.1,0.1,0.1,0.2c0,0.1,0,0.2,0.1,0.3c0.1,0.1,0.1,0.1,0.1,0.2c0,0.1,0.1,0.1,0.1,0.2c0,0,0.1,0.1,0.1,0.1   c0.1,0.3,0.1,0.6,0,0.9c0,0,0.1,0.1,0.1,0.1c0.1,0.1,0.1,0.1,0,0.2c0,0.1,0,0.1-0.1,0.2C65,8.9,65,9.1,64.8,9.3   c-0.1,0-0.1,0-0.2,0c0,0.1-0.1,0.1-0.2,0.2c0,0,0,0-0.1,0c-0.1,0-0.2,0-0.3,0.1l-0.1,0c0,0.1-0.2,0.1-0.3,0.2   c-0.1,0.1-0.2,0.1-0.3,0.1c0,0,0,0,0,0h0c0,0-0.1,0-0.1,0c-0.1,0.1-0.2,0.1-0.2,0.2c-0.2,0-0.4-0.1-0.6-0.2   c-0.1,0-0.2,0.1-0.2,0.2c0,0.1-0.1,0.2-0.3,0.2c-0.1,0-0.3,0-0.4,0l0,0.1c-0.1,0.1-0.1,0.2-0.2,0.2c0,0-0.1,0-0.2-0.1   c-0.1-0.1-0.2-0.1-0.3-0.2c0,0-0.1,0-0.1,0c-0.1,0-0.2,0.1-0.2,0.2c0,0,0,0.1,0,0.1c0,0.1,0,0.2,0,0.3c0,0.2,0.1,0.3,0.1,0.5   c0,0.2,0,0.4,0.1,0.6c0,0.1,0.1,0.2,0.2,0.3c0.1,0.1,0.2,0.3,0.1,0.5c0,0.1,0.1,0.2,0.1,0.2c0,0,0.1,0,0.1,0   c0,0.1,0.1,0.1,0.1,0.2c0,0.1,0.1,0.3,0,0.4c0,0.1,0,0.2,0,0.2c0.1,0.1,0.1,0.2,0.1,0.4c0,0.1,0.1,0.2,0.3,0.3   c0,0,0.1,0.1,0.1,0.1c0.2-0.1,0.4-0.2,0.7-0.3c0.1,0,0.2-0.1,0.3-0.1c0.1,0,0.1-0.1,0.2-0.1c0,0,0.1-0.1,0-0.2   c-0.1-0.1,0-0.1,0.1-0.2c0.1,0,0.1,0,0.2,0c0,0-0.1,0.1-0.1,0.1c0,0,0,0,0.1,0c0,0,0,0,0,0c0.1,0,0.1,0,0.2-0.1   c0.2-0.1,0.4-0.2,0.6-0.2c0.2-0.1,0.4-0.2,0.5-0.3c0,0,0.1-0.1,0.1-0.1c0.1,0,0.2-0.1,0.3-0.1c0.1-0.1,0.2-0.1,0.3-0.1   c0.1,0,0.3-0.1,0.3-0.2c0.1-0.1,0.2-0.2,0.3-0.2c0.1,0,0.2-0.1,0.2-0.2c0.1-0.1,0.1-0.1,0.2-0.1c0,0,0,0,0.1,0c0,0,0,0.1,0,0.2   c0.1,0,0.2-0.1,0.3-0.1c0.1,0,0.2-0.1,0.2-0.1c0-0.1,0-0.1,0-0.2l0,0c0,0,0.1,0,0.1-0.1c0.1,0,0.3-0.1,0.4-0.1   c0.1-0.1,0.2-0.1,0.3-0.1c0,0,0.1,0,0.1-0.1l0.1,0c0,0,0.1,0,0.1,0c0.1,0,0.2-0.1,0.2-0.2c0,0,0.1-0.1,0.1-0.1   c0.1-0.1,0.3-0.1,0.4-0.2c0.4-0.2,0.7-0.4,1.1-0.6c0,0,0.1,0,0.1-0.1l0,0c0.1,0,0.1-0.1,0.2-0.1c0.1-0.2,0.2-0.2,0.3-0.2   c0.1,0,0.1,0,0.2,0c0.3-0.2,0.7-0.4,1-0.6C72,9.3,72.3,9.2,72.5,9c0.3-0.1,0.5-0.3,0.8-0.4c0.1-0.1,0.3-0.1,0.5-0.3   c0.1-0.1,0.2-0.1,0.3-0.1c0.1-0.2,0.2-0.3,0.4-0.3c0.1,0,0.2,0,0.2-0.1c0.2-0.2,0.4-0.2,0.6-0.3c0.1,0,0.1-0.1,0.2-0.2   c0.1,0,0.2,0,0.3-0.1C76,7.2,76.1,7.1,76.3,7c0,0,0.1,0,0.1,0c0.2,0,0.4-0.1,0.5-0.3c0.1,0,0.1,0,0.2,0c0-0.1,0.1-0.1,0.1-0.2h0   c0,0,0,0,0,0c0,0,0,0,0,0c0.1,0,0.1,0,0.2-0.1c0,0,0.1,0,0.1-0.1c0.1,0,0.1,0,0.2-0.1c0,0,0.1,0,0.1,0c0,0,0.1,0,0.1,0   c0,0.1,0,0.1-0.1,0.1c-0.1,0.1-0.2,0.2-0.4,0.2c-0.1,0-0.1,0.1-0.2,0.1c-0.1,0.1-0.3,0.2-0.5,0.3c-0.4,0.3-0.9,0.5-1.3,0.8   C75.3,8,75,8.1,74.8,8.2c-0.4,0.3-0.9,0.5-1.3,0.7c-0.2,0.1-0.3,0.2-0.5,0.3c-0.1,0.1-0.3,0.2-0.4,0.3c-0.2,0.2-0.3,0.3-0.5,0.4   c-0.2,0.1-0.2,0.2-0.2,0.4c0.1,0,0.1-0.1,0.2-0.1c0.1,0,0.1,0,0.1-0.1c0,0,0.1-0.1,0.1-0.1h0c0,0,0,0,0,0c0.1,0,0.2-0.1,0.3-0.1   c0.1,0,0.2-0.1,0.2-0.2c0,0,0.1-0.1,0.1-0.1c0,0,0,0,0,0h0c0.1,0,0.2-0.1,0.3-0.1c0.2-0.1,0.4-0.3,0.6-0.4c0,0,0.1,0,0.1-0.1   c0.1,0,0,0.1,0,0.1c-0.2,0.1-0.3,0.2-0.5,0.4c-0.2,0.2-0.4,0.3-0.6,0.5c0,0,0,0.1,0,0.1c0.1,0,0.2-0.1,0.3-0.1   c0.3-0.2,0.6-0.4,1-0.6c0,0,0,0,0,0c0,0,0,0,0,0c0,0.1,0,0.1-0.1,0.1c-0.2,0.2-0.5,0.3-0.7,0.5c-0.1,0-0.1,0.1-0.2,0.1   c-0.1,0.1-0.2,0.2-0.4,0.3c-0.1,0-0.1,0.1-0.2,0.2c0,0-0.1,0.1-0.1,0.1c-0.1,0.1-0.2,0.1-0.4,0.2l0,0c0,0-0.1,0.1-0.1,0.1l0,0   c-0.1,0-0.2,0.1-0.3,0.2c-0.1,0.1-0.3,0.2-0.4,0.3l0,0.1c0,0,0.1,0,0.1,0c0,0,0.1,0,0.1,0c0,0,0.1,0,0.1,0c0,0,0.1,0,0.1,0   c-0.1,0-0.1,0.1-0.2,0.1c-0.1,0-0.2,0.1-0.2,0.2c-0.2,0.1-0.3,0.3-0.5,0.4c0,0,0,0,0,0c0,0-0.1,0-0.1,0c0-0.1,0-0.1,0-0.2   c0,0,0,0,0,0h0c0,0-0.1,0-0.1,0c-0.1,0.1-0.3,0.2-0.4,0.3c0,0.1,0,0.2-0.1,0.3c-0.2,0.1-0.3,0.2-0.5,0.3c-0.1,0.1-0.3,0.2-0.4,0.3   c0,0-0.1,0-0.1,0.1c0,0-0.1,0-0.1,0c-0.2,0.2-0.4,0.3-0.6,0.5l0,0v0l0,0c0.1,0,0.2-0.1,0.2-0.1c0.1-0.1,0.2-0.1,0.4-0.2   c0.2-0.1,0.3-0.2,0.5-0.3c0.2-0.1,0.4-0.2,0.6-0.4c0.1-0.1,0.3-0.2,0.5-0.3c0.1-0.1,0.2-0.1,0.3-0.2c0.1-0.1,0.2-0.2,0.3-0.2   c0.2-0.1,0.4-0.3,0.6-0.4c0.1,0,0.1-0.1,0.2-0.1c0,0,0,0,0,0c0,0,0,0,0,0c0.1,0,0.1,0,0.2,0c0,0.1,0,0.1-0.1,0.2   c-0.1,0.1-0.2,0.1-0.2,0.2c0,0.1-0.1,0.1-0.2,0.1s-0.1,0.1-0.1,0.2c0,0-0.1,0-0.1,0c-0.2,0.1-0.4,0.2-0.5,0.4l-0.1,0.1   c-0.2,0-0.2,0.2-0.4,0.2c0,0-0.1,0-0.1,0.1c-0.1,0.1-0.2,0.2-0.4,0.2h0c-0.1,0-0.1,0-0.2,0.1c-0.1,0.1-0.2,0.2-0.3,0.3   c-0.1,0.1-0.2,0.1-0.3,0.2c-0.1,0-0.1-0.1-0.2-0.1c0,0,0,0,0,0c-0.1,0-0.1,0-0.2,0.1c0,0,0.1,0.1,0.1,0.1l0,0.1   c-0.3,0.3-0.7,0.4-1,0.6c-0.2,0.1-0.4,0.3-0.6,0.4c-0.2,0.1-0.4,0.2-0.6,0.3c-0.1,0.1-0.3,0.2-0.4,0.2c-0.1,0.1-0.2,0.2-0.4,0.2   c0,0,0,0,0,0c0,0,0,0,0,0c-0.1,0-0.2,0.1-0.2,0.1c-0.1,0.1-0.2,0.2-0.3,0.2c-0.1,0.1-0.2,0.1-0.4,0.2c-0.1,0.1-0.2,0.1-0.3,0.1h0   c-0.1,0-0.2,0.1-0.3,0.1c-0.3,0.3-0.6,0.4-0.9,0.6c-0.2,0.1-0.4,0.1-0.5,0.3c-0.1,0.1-0.2,0.1-0.3,0.1c-0.1,0-0.1,0-0.1,0.1   c-0.1,0.1-0.2,0.2-0.4,0.3l0,0c-0.1,0.2-0.3,0.2-0.4,0.3c0,0-0.1,0.1-0.1,0.1c0,0.1,0,0.1,0,0.2c-0.1,0.1-0.3,0.2-0.4,0.3   c0,0.2,0,0.4,0,0.6c0,0.1,0,0.1,0,0.2c-0.2,0.4-0.2,0.8-0.2,1.2c0,0.2,0,0.3,0,0.5c0,0.3,0,0.6,0,0.9c0,0.1,0,0.3,0,0.4   c0,0.4,0,0.7,0,1.1c0,0.1,0,0.1,0,0.3c0,0-0.1-0.1-0.1-0.1c0-0.2-0.1-0.4,0-0.6c0-0.1,0-0.1,0-0.2l0-0.1c0-0.2-0.1-0.4,0-0.7   c0-0.2,0-0.4,0-0.7c0-0.1,0-0.2-0.1-0.3c0,0.1,0,0.1,0,0.1c0,0.4,0,0.7,0,1.1c0,0.3,0,0.5,0,0.8c0,0.2,0,0.4,0,0.5   c0,0.4,0,0.8,0,1.3c0,0.2,0,0.4,0,0.5c0,0.2,0,0.5,0,0.7c0,0.1,0.1,0.2,0.1,0.3c0.1,0.2,0.1,0.4,0.2,0.6c0.1,0.1,0.1,0.3,0,0.4   c-0.1,0.1-0.1,0.3-0.1,0.4c0,0.2,0,0.4,0,0.6c0,0.2-0.1,0.3,0,0.5c0,0,0,0.1,0,0.1c-0.1,0.1-0.1,0.3,0,0.4c0,0.2,0,0.4-0.1,0.6   c-0.1,0.1-0.1,0.3-0.1,0.4c0,0.3,0,0.6-0.1,0.9c-0.1,0.3-0.1,0.6-0.1,1c0,0.6,0,1.1,0,1.7c0,0.4,0,0.7-0.1,1.1   c0,0.1,0,0.2-0.1,0.3c0-0.1-0.1-0.1-0.1-0.1c0-0.1,0-0.2,0-0.4c0-0.2,0-0.4,0-0.7c0,0,0,0,0-0.1c-0.1,0.2,0,0.4-0.1,0.6   C60,35.3,60,35.5,60,35.7C60,36,60,36.2,59.9,36.4"></path>		<path class="st2" d="M84.5,22.6c0.1,0,0.1-0.1,0.1-0.2c0,0.1,0,0.1,0,0.1C84.6,22.6,84.6,22.6,84.5,22.6   C84.6,22.6,84.6,22.6,84.5,22.6C84.5,22.6,84.5,22.6,84.5,22.6C84.5,22.6,84.5,22.6,84.5,22.6"></path>		<defs>							<filter id="Adobe_OpacityMaskFilter_00000072245129724934816060000003352680957135670172_" filterUnits="userSpaceOnUse" x="84.4" y="22.3" width="0.3" height="0.3">							</filter>		</defs>					<mask maskUnits="userSpaceOnUse" x="84.4" y="22.3" width="0.3" height="0.3" id="mask2_111_2063_00000036943214731683757050000000484603704766531516_">			<path style="fill:#FFFFFF;filter:url(#Adobe_OpacityMaskFilter_00000072245129724934816060000003352680957135670172_);" d="    M84.5,22.6c0.1,0,0.1-0.1,0.1-0.2c0,0.1,0,0.1,0,0.1C84.6,22.6,84.6,22.6,84.5,22.6C84.6,22.6,84.6,22.6,84.5,22.6    C84.5,22.6,84.5,22.6,84.5,22.6C84.5,22.6,84.5,22.6,84.5,22.6"></path>		</mask>		<g class="st4">			<path class="st2" d="M84.7,22.3h-0.3v0.3h0.3V22.3z"></path>			<defs>									<filter id="Adobe_OpacityMaskFilter_00000141427292085106051170000003083021521759058590_" filterUnits="userSpaceOnUse" x="84.4" y="22.3" width="0.3" height="0.3">									</filter>			</defs>							<mask maskUnits="userSpaceOnUse" x="84.4" y="22.3" width="0.3" height="0.3" id="mask3_111_2063_00000083777690963360996490000013102265965653301404_">				<path style="fill:#FFFFFF;filter:url(#Adobe_OpacityMaskFilter_00000141427292085106051170000003083021521759058590_);" d="     M84.7,22.3h-0.3v0.3h0.3V22.3z"></path>			</mask>			<g class="st6">				<rect x="84.4" y="22.3" class="st7" width="0.3" height="0.3"></rect>			</g>		</g>		<path class="st2" d="M84.4,22.1L84.4,22.1L84.4,22.1L84.4,22.1z"></path>		<defs>							<filter id="Adobe_OpacityMaskFilter_00000112599443394513243370000013537880604837604499_" filterUnits="userSpaceOnUse" x="84.4" y="22" width="0.2" height="0.2">							</filter>		</defs>					<mask maskUnits="userSpaceOnUse" x="84.4" y="22" width="0.2" height="0.2" id="mask4_111_2063_00000181800394963407047510000012762712106527822734_">			<path style="fill:#FFFFFF;filter:url(#Adobe_OpacityMaskFilter_00000112599443394513243370000013537880604837604499_);" d="    M84.4,22.1L84.4,22.1L84.4,22.1L84.4,22.1z"></path>		</mask>		<g class="st9">			<path class="st2" d="M84.5,22h-0.2v0.2h0.2V22z"></path>			<defs>									<filter id="Adobe_OpacityMaskFilter_00000163053733623259127570000009083375131053306499_" filterUnits="userSpaceOnUse" x="84.4" y="22" width="0.2" height="0.2">									</filter>			</defs>							<mask maskUnits="userSpaceOnUse" x="84.4" y="22" width="0.2" height="0.2" id="mask5_111_2063_00000005959246910900517050000005116601725703589532_">				<path style="fill:#FFFFFF;filter:url(#Adobe_OpacityMaskFilter_00000163053733623259127570000009083375131053306499_);" d="     M84.5,22h-0.2v0.2h0.2V22z"></path>			</mask>			<g class="st11">				<rect x="84.4" y="22" class="st7" width="0.2" height="0.2"></rect>			</g>		</g>		<path class="st2" d="M84.7,22.4C84.7,22.4,84.7,22.4,84.7,22.4L84.7,22.4C84.7,22.4,84.7,22.4,84.7,22.4z M84.6,22.4   C84.6,22.4,84.7,22.4,84.6,22.4C84.7,22.4,84.6,22.4,84.6,22.4z"></path>		<defs>							<filter id="Adobe_OpacityMaskFilter_00000149361899286636117030000003488194802681099155_" filterUnits="userSpaceOnUse" x="84.5" y="22.3" width="0.3" height="0.2">							</filter>		</defs>					<mask maskUnits="userSpaceOnUse" x="84.5" y="22.3" width="0.3" height="0.2" id="mask6_111_2063_00000026121323247728997070000006103505975160005297_">			<path style="fill:#FFFFFF;filter:url(#Adobe_OpacityMaskFilter_00000149361899286636117030000003488194802681099155_);" d="    M84.7,22.4C84.7,22.4,84.7,22.4,84.7,22.4L84.7,22.4C84.7,22.4,84.7,22.4,84.7,22.4z M84.6,22.4C84.6,22.4,84.7,22.4,84.6,22.4    C84.7,22.4,84.6,22.4,84.6,22.4z"></path>		</mask>		<g class="st13">			<path class="st2" d="M84.8,22.3h-0.3v0.2h0.3V22.3z"></path>			<defs>									<filter id="Adobe_OpacityMaskFilter_00000149345022741555040810000016400810781568053689_" filterUnits="userSpaceOnUse" x="84.5" y="22.3" width="0.3" height="0.2">									</filter>			</defs>							<mask maskUnits="userSpaceOnUse" x="84.5" y="22.3" width="0.3" height="0.2" id="mask7_111_2063_00000079444152465730926970000001265814543523323832_">				<path style="fill:#FFFFFF;filter:url(#Adobe_OpacityMaskFilter_00000149345022741555040810000016400810781568053689_);" d="     M84.8,22.3h-0.3v0.2h0.3V22.3z"></path>			</mask>			<g class="st15">				<rect x="84.5" y="22.3" class="st7" width="0.3" height="0.2"></rect>			</g>		</g>		<path class="st2" d="M102.3,3.5L102.3,3.5C102.3,3.5,102.3,3.5,102.3,3.5z M101.8,3.6C101.8,3.6,101.8,3.6,101.8,3.6   C101.8,3.6,101.8,3.6,101.8,3.6L101.8,3.6 M102.1,3.6L102.1,3.6C102.1,3.6,102.1,3.6,102.1,3.6C102.1,3.6,102.1,3.6,102.1,3.6    M101.5,4.4C101.5,4.4,101.5,4.4,101.5,4.4C101.5,4.4,101.5,4.4,101.5,4.4L101.5,4.4 M102,4.5C102,4.5,102,4.5,102,4.5L102,4.5   C102.1,4.5,102,4.5,102,4.5z M101.3,4.5C101.3,4.5,101.3,4.5,101.3,4.5L101.3,4.5C101.3,4.5,101.3,4.5,101.3,4.5 M100.9,4L100.9,4   L100.9,4L100.9,4L100.9,4 M100.7,4.1L100.7,4.1L100.7,4.1L100.7,4.1 M101.1,4.6C101.1,4.6,101,4.6,101.1,4.6   C101,4.6,101.1,4.6,101.1,4.6z M101,4.6c-0.1,0.1,0,0.2-0.2,0.3c0,0,0,0,0,0s0,0,0,0s0,0,0,0c0.1,0,0.1,0,0.1-0.1   C101.1,4.7,101,4.6,101,4.6 M94.7,9.1L94.7,9.1L94.7,9.1L94.7,9.1L94.7,9.1z M100.9,9.5L100.9,9.5c-0.2,0.1-0.3,0.1-0.4,0.2   c0,0,0,0-0.1,0.1c0,0,0.1,0,0.1,0c0,0,0,0,0,0c0.2-0.1,0.3-0.1,0.5-0.3c0.1,0,0.1,0,0.2-0.1c0,0,0,0,0,0h0c0,0,0,0-0.1,0   s0,0-0.1,0h0c0,0,0,0,0,0c0,0,0,0,0,0C101.1,9.5,101,9.5,100.9,9.5L100.9,9.5 M100.2,9.9L100.2,9.9L100.2,9.9L100.2,9.9L100.2,9.9   z M96.1,11.7L96.1,11.7L96.1,11.7L96.1,11.7L96.1,11.7z M88.7,15.7C88.6,15.7,88.6,15.7,88.7,15.7C88.7,15.7,88.7,15.7,88.7,15.7z    M97.1,16.1L97.1,16.1L97.1,16.1L97.1,16.1L97.1,16.1 M84.3,23.1c-0.1-0.1-0.1-0.2-0.3-0.2c-0.2,0-0.2-0.2-0.4-0.2   c0,0,0-0.1-0.1-0.2c-0.1,0-0.2,0-0.3-0.1c0,0,0,0-0.1,0c0,0,0,0,0,0c0,0-0.1,0-0.1,0c-0.1,0-0.1-0.1-0.2-0.2   c0-0.1-0.1-0.2-0.2-0.2c0,0-0.1,0-0.1,0c0,0-0.1,0-0.1,0c0-0.2-0.1-0.3-0.2-0.4c0,0,0-0.1-0.1-0.1c0-0.1-0.1-0.1-0.1-0.2   C82,21.2,82,21.1,82,21c0-0.1-0.1-0.2,0-0.3c0,0,0-0.1,0-0.1c-0.1-0.2-0.1-0.2-0.2-0.4c0,0,0-0.1,0-0.1c0.1,0,0.1-0.1,0.2-0.1   c-0.1,0-0.2-0.1-0.2-0.1c0.1-0.1,0.1-0.2,0.2-0.3c-0.1-0.1-0.1-0.2-0.3-0.3l0,0c0-0.1-0.1-0.2-0.1-0.4c0-0.2-0.1-0.4,0-0.6v-0.1   c-0.1-0.2,0-0.3,0.1-0.4c0.1-0.1,0.1-0.2,0.1-0.2c0.1-0.1,0.2-0.1,0.3-0.2c0.1,0,0.1-0.1,0.2-0.1c0,0,0,0,0.1,0c0.1,0,0.1,0,0.2,0   c0,0,0.1,0,0.1,0c0,0,0,0,0,0c0.1,0,0.2,0.1,0.2,0.1c0.2-0.1,0.3-0.2,0.5-0.3c0-0.2,0-0.4,0-0.6c0,0,0,0,0,0c0.1,0,0.2,0,0.3-0.2   c0.2-0.1,0.3-0.3,0.4-0.4l0,0c0-0.1,0-0.1,0-0.2c0.1-0.1,0.1-0.1,0.2-0.2c0-0.2,0-0.3,0.1-0.4c0.1-0.1,0-0.2,0-0.3   c0.1-0.1,0.3-0.1,0.4-0.1c0.1,0,0.2-0.1,0.2-0.2c0.1-0.2,0.2-0.5,0.3-0.7l0.1,0l0.1,0l0-0.1c0.1-0.3,0.2-0.5,0.3-0.8   c0,0,0-0.1,0.1-0.1c0,0,0,0,0.1,0c0,0,0,0.1,0,0.1c0,0.2,0,0.4-0.1,0.5c0,0.2-0.1,0.4-0.1,0.5c0,0,0,0.1,0,0.1c0,0,0,0,0,0   c0,0,0.1,0,0.1-0.1c0.1-0.4,0.2-0.7,0.3-1.1c0,0,0-0.1,0-0.1c0.1,0,0.1,0.1,0.1,0.1c0,0.2,0,0.3,0,0.5c0,0.2,0,0.3-0.1,0.5   c0.1,0,0.1,0.1,0.1,0.1c-0.1,0.2-0.1,0.4-0.2,0.6c0,0,0,0,0.1,0c0,0,0,0,0.1,0c0.1-0.1,0.2-0.1,0.3-0.3c0.1-0.1,0.2-0.2,0.3-0.3   c0.1-0.1,0.2-0.2,0.3-0.3c0-0.1,0.1-0.1,0.2-0.2c0.1,0,0.1-0.1,0.2-0.1c0.1-0.1,0.2-0.1,0.2-0.3c0,0,0.1-0.1,0.1-0.1   c0.1,0,0.2-0.1,0.2-0.2c0.1-0.1,0.2-0.2,0.2-0.3l0,0c0.2,0,0.3-0.2,0.5-0.3c0.2-0.1,0.4-0.1,0.5-0.1c0,0,0,0,0,0c0,0,0.1,0,0.1,0   c0,0,0,0,0,0c0,0,0.1,0,0.1,0c0,0,0.1,0,0.1,0c0,0,0,0,0,0c0.2,0,0.4-0.1,0.6-0.2c0.1,0,0.1-0.1,0.2-0.1c0.1,0,0.2-0.1,0.2-0.1   c0.1,0,0.1-0.1,0.2-0.1c0,0,0.1,0,0.1,0c0,0,0.1,0,0.1,0c0.1-0.1,0.1-0.2,0.2-0.2c0,0,0,0,0,0c0.3-0.1,0.5-0.2,0.7-0.3   c0,0,0.1-0.1,0.1-0.1c0,0,0,0,0,0c0,0,0,0,0,0c0.1,0,0.2-0.1,0.3-0.1c0.1-0.1,0.2-0.1,0.3-0.2c0,0,0.1,0,0.1-0.1   c0.1-0.1,0.2-0.1,0.3-0.1c0,0,0,0,0.1,0c0,0,0,0,0,0c0.1,0,0.1,0,0.2-0.1c0,0,0.1-0.1,0.1-0.1c0,0,0.1,0,0.1-0.1   c0.2-0.2,0.4-0.3,0.5-0.6c0,0,0.1-0.1,0.1-0.1c0.1-0.1,0.2-0.2,0.3-0.3c0,0,0,0-0.1,0c0,0,0,0,0,0c-0.2,0.1-0.4,0.1-0.6,0.2   c-0.2,0.1-0.4,0.1-0.6,0.2c-0.2,0.1-0.5,0.2-0.7,0.2c-0.1,0-0.2,0.1-0.4,0.1c-0.2,0.1-0.4,0.2-0.6,0.2c-0.2,0.1-0.4,0.1-0.5,0.3   c-0.1,0.1-0.2,0.1-0.3,0.1c-0.1,0-0.1,0.1-0.2,0.1c0,0,0,0,0,0c0,0.1-0.1,0.1-0.2,0.2c0,0,0,0-0.1,0c0,0,0-0.1-0.1-0.1   c0,0-0.1,0-0.1,0c0,0,0,0,0,0c0,0-0.1,0-0.1,0c-0.1,0-0.2-0.1-0.3-0.1c0,0-0.1,0-0.1,0.1c0,0-0.1,0-0.1,0c0,0,0,0-0.1,0   c0,0,0,0,0,0c0,0,0,0-0.1,0c-0.1,0-0.2,0.1-0.2,0.1c-0.1,0-0.1,0.1-0.2,0.1c0,0-0.1,0-0.1,0c-0.1,0-0.1-0.1-0.2-0.2   c0,0-0.1,0-0.1,0c-0.2,0-0.3-0.1-0.5-0.1c0-0.1,0-0.1,0-0.2c0-0.1,0-0.2-0.1-0.3C88,10.1,88,10,88,9.9c-0.1-0.2,0-0.4-0.2-0.5   c-0.1,0-0.1,0-0.2,0c-0.1,0-0.1,0-0.2,0c0,0,0,0-0.1,0c0,0,0,0-0.1,0c0,0-0.1,0-0.1,0c-0.1,0-0.2,0-0.2,0.1c0,0-0.1,0.1-0.1,0.1   c-0.1,0.1-0.2,0.1-0.3,0.2c0,0-0.1-0.1-0.1-0.1c0,0-0.1-0.1-0.1-0.1c0-0.1-0.1-0.3-0.1-0.4c0-0.1-0.1-0.2-0.1-0.2   c-0.1,0-0.1,0-0.1,0c0-0.1,0-0.3,0-0.4c0-0.1,0-0.2,0.1-0.2c0.1-0.1,0.2-0.3,0.3-0.4c0.3-0.3,0.7-0.5,1.1-0.8   C87.6,7.1,87.8,7,88,6.9c0.1,0,0.1-0.1,0.1-0.2c0-0.1,0.1-0.1,0.1-0.1c0,0,0,0,0,0c0,0,0,0,0,0c0,0,0.1,0,0.1-0.1   c0,0,0.1-0.1,0.1-0.1c0,0,0,0,0,0s0,0,0,0c0,0,0,0,0,0c0,0,0.1,0,0.1-0.1c0-0.1,0.1-0.1,0.1-0.1c0,0,0,0,0,0c0,0,0,0,0,0   c0,0,0.1,0,0.1,0l0.1-0.1c0.1,0,0.2,0,0.3-0.1c0.1,0,0.2-0.1,0.3-0.1c0.1,0,0.2-0.1,0.2-0.1c0.1-0.1,0.3-0.2,0.4-0.2   c0.1,0,0.1,0,0.2,0c0,0,0,0,0.1,0c0,0,0,0,0,0c0.1,0,0.2,0,0.3-0.1c0.1,0,0.2-0.1,0.4-0.1c0,0,0.1,0,0.1,0l0,0   c0.1-0.1,0.2-0.1,0.2-0.2c0.1-0.1,0.2-0.1,0.3-0.2c0.1-0.1,0.2-0.2,0.3-0.2c0.2-0.1,0.3-0.2,0.5-0.4c0.1-0.1,0.2-0.2,0.3-0.2   c0,0,0.1,0,0.1,0c0,0,0,0.1,0,0.1c-0.1,0.2-0.3,0.4-0.5,0.6l0,0c-0.2,0.1-0.3,0.3-0.4,0.4c-0.1,0.1-0.2,0.2-0.4,0.3   c-0.1,0.1-0.2,0.2-0.2,0.4c0,0.1,0,0.3,0,0.5c0.1,0,0.1,0,0.2,0c0.1,0,0.1,0,0.2,0.1v0.4C92,7,92,7,92.1,7c0.1,0,0.1,0,0.2,0   c0.2-0.1,0.3-0.1,0.5-0.2c0.1,0,0.1-0.1,0.1-0.1c0.1,0,0.1,0,0.2,0c0,0,0,0,0.1,0c0,0,0,0,0,0c0,0,0.1,0,0.1,0c0,0,0.1,0,0.1,0   c0,0,0,0,0,0h0c0.1,0,0.2,0,0.3-0.1c0.1,0,0.1,0,0.2,0c0,0,0,0,0,0c0,0,0,0,0,0c0.1,0,0.1,0,0.1-0.1l0.1,0c0,0,0.1,0,0.1,0   c0.1,0,0.2-0.1,0.4-0.1c0.2,0,0.3-0.1,0.5-0.2c0.5-0.2,1-0.4,1.5-0.6c0.1,0,0.2-0.1,0.2-0.1c0.5-0.2,1-0.4,1.4-0.6   c0.4-0.1,0.8-0.3,1.1-0.4c0.1,0,0.2-0.1,0.3-0.1c0,0.1,0.1,0.1,0.1,0.1c0,0,0,0,0.1,0c0,0,0-0.1,0-0.1c0.1-0.1,0.3-0.1,0.4-0.2   c0.4-0.2,0.8-0.3,1.2-0.5c0.1,0,0.1,0,0.2,0c0,0,0,0,0.1,0c0,0,0,0-0.1,0.1c-0.1,0.1-0.3,0.1-0.4,0.2c0,0,0,0-0.1,0.1   c0,0,0.1,0,0.1,0c0,0,0,0,0,0c0.2-0.1,0.4-0.2,0.6-0.3c0.1,0,0.2,0,0.2-0.1c0,0,0.1,0,0.1,0c0-0.1,0.1-0.2,0.2-0.2   c0.2-0.1,0.5-0.2,0.7-0.3c0.1,0,0.2-0.1,0.3-0.1c0,0,0.1-0.1,0.1-0.1c0.3-0.1,0.7-0.3,1-0.4c0.4-0.2,0.8-0.3,1.2-0.5   c0.1,0,0.1-0.1,0.2-0.1c0,0,0,0,0,0c-0.2,0.1-0.4,0.2-0.5,0.3c-0.4,0.2-0.8,0.3-1.2,0.5c-0.2,0.1-0.3,0.2-0.5,0.3   C104,3,104,3,103.9,3.1c-0.3,0.1-0.5,0.3-0.8,0.5c-0.1,0.1-0.2,0.1-0.3,0.2c-0.2,0.1-0.5,0.3-0.7,0.4c-0.1,0.1-0.2,0.1-0.4,0.2h0   c-0.1,0-0.1,0-0.2,0.1c0,0-0.1,0.1-0.1,0.1c0,0-0.1,0-0.1,0c-0.1,0-0.2,0-0.2,0.1c0,0,0.1,0,0.1,0c0,0.1-0.1,0.1-0.1,0.2   c0,0,0.1,0,0.1,0.1c0-0.1,0.1-0.1,0.1-0.2c0,0,0.1,0.1,0.1,0.1c0,0,0.1-0.1,0.1-0.1c0,0,0.1,0,0.2,0c0.1,0,0.1,0,0.2,0   c-0.1,0.1-0.3,0.2-0.4,0.2c-0.4,0.1-0.7,0.3-1.1,0.5c-0.1,0.1-0.2,0.1-0.3,0.2c-0.1,0-0.2,0.1-0.2,0.2c0,0,0,0-0.1,0   c0,0-0.1,0-0.1,0c-0.1,0-0.1,0.1,0,0.2c0.7-0.2,1.3-0.5,1.9-0.7c0.6-0.2,1.3-0.5,1.9-0.8c0.1,0.1,0,0.1,0,0.1   c-0.2,0.1-0.3,0.2-0.5,0.3c-0.2,0.1-0.4,0.2-0.6,0.3c-0.1,0.1-0.3,0.1-0.4,0.2c-0.2,0.2-0.5,0.3-0.8,0.4c0,0-0.1,0.1-0.1,0.1   c-0.1,0-0.1,0.1-0.2,0.1c-0.3,0.1-0.6,0.3-1,0.4c-0.3,0.1-0.6,0.2-0.9,0.3c-0.2,0.1-0.3,0.1-0.5,0.2c-0.3,0.1-0.5,0.2-0.8,0.3   c-0.1,0-0.1,0.1-0.2,0.1c0,0,0.1,0,0.1,0c0.2,0,0.5-0.1,1.1-0.3c0.4-0.1,0.8-0.2,1.2-0.3C100.1,6.9,100,7,99.8,7   c-0.2,0.1-0.4,0.2-0.6,0.3c-0.3,0.2-0.7,0.3-1.1,0.4c-0.2,0.1-0.3,0.1-0.5,0.2c-0.2,0-0.3,0.1-0.4,0.2c-0.1,0-0.2,0.1-0.2,0.1   c-0.3,0-0.6,0.2-0.9,0.4c-0.2,0.1-0.3,0.1-0.5,0.2c-0.1,0-0.2,0.1-0.2,0.1c-0.2,0.3-0.2,0.6-0.2,1c0,0,0.1,0,0.1,0c0,0,0,0,0,0   c0.1-0.1,0.2-0.1,0.4-0.1c0,0,0,0,0,0c0,0,0,0,0,0c0.1,0,0.1,0,0.2,0c0.1-0.1,0.3-0.3,0.4-0.4c0,0,0,0,0,0s0,0,0,0s0,0,0,0   c0,0,0,0,0,0c0.1,0,0.2,0.1,0.2,0.1s0.2,0,0.3,0c0.2-0.1,0.4-0.1,0.7-0.1c0.2,0,0.4-0.1,0.6-0.1c0.1,0,0.1,0,0.2-0.1   c0,0,0,0.1,0.1,0.1c0,0,0.1-0.1,0.2-0.1c0,0,0.1,0,0.1,0c0,0,0,0,0,0s0,0,0,0c0,0,0,0,0.1,0c0.1,0,0.2,0,0.2,0   c0.1,0,0.3-0.1,0.4-0.1h0c0.2,0,0.4,0,0.5-0.1c0.1,0,0.2,0,0.2,0c0.3,0,0.5-0.1,0.8-0.1c0.1,0,0.3,0,0.4-0.1c0.1,0,0.1,0,0.2,0   c0.1,0,0.1,0,0.2,0c0.2,0.1,0.4,0,0.7,0.1c0.4,0,0.7,0,1.1,0.1c0.1,0,0.2,0,0.2,0.1c0.3,0.1,0.4,0.3,0.6,0.5   c0.1,0.1,0.1,0.2,0.1,0.3c0,0.2,0,0.3,0,0.5c0.1,0.1,0.2,0.2,0.3,0.3c0,0,0.1,0,0.1,0c0,0,0.1,0,0.1,0c0,0,0.1,0,0.1,0.1   c0,0.1,0.1,0.2,0.2,0.2c0.1,0,0.1,0.1,0.2,0.1c0,0,0,0,0.1,0c0,0,0,0,0,0c0,0,0.1,0,0.1,0c0,0.1,0.1,0.1,0.2,0.1c0,0,0,0,0,0   c0,0,0,0,0.1,0c0.1,0,0.2,0,0.3,0c0.2,0,0.2,0,0.2,0.3c0,0,0,0.1,0,0.1c0.1,0,0.3,0.1,0.4,0.1c0.1,0,0.2,0.1,0.2,0.2   c0,0,0,0.1,0.1,0.1c0.1,0,0.1,0,0.2,0.1c0,0,0,0.1,0,0.1c0,0.1,0,0.2,0.1,0.2c0.1,0,0.1,0.1,0.3,0.1c0,0,0,0,0,0c0,0,0,0,0,0   c0.1,0,0.1,0,0.1,0.1c0,0,0.1,0.1,0.1,0.1c0.2,0.1,0.3,0.3,0.3,0.6c0.1,0.1,0.2,0.2,0.2,0.3c0,0.1,0.1,0.2,0.2,0.2l0,0.1   c-0.1,0.1-0.1,0.3,0,0.4c0.1,0.1,0.1,0.3,0.1,0.4c-0.1,0.2-0.2,0.4-0.3,0.7c-0.1,0-0.1,0-0.2,0c-0.1,0.1-0.1,0.2-0.2,0.4   c-0.1,0-0.1,0.1-0.2,0.1c0,0-0.1,0-0.1,0.1c0,0.1-0.1,0.2-0.2,0.2c-0.1,0-0.2-0.1-0.3-0.1c-0.1,0-0.2,0-0.3,0.1c0,0,0,0-0.1,0   c0,0,0,0,0,0c0,0-0.1,0-0.1,0c0,0,0,0-0.1,0c0,0-0.1,0.1-0.1,0.1c-0.1,0-0.3-0.1-0.4-0.1c0,0-0.1,0-0.1-0.1   c-0.1-0.1-0.1-0.1-0.2-0.1c0,0-0.1,0-0.1,0c-0.2-0.1-0.3-0.1-0.5-0.2c-0.4-0.1-0.7-0.1-1.1-0.2c-0.3,0-0.5-0.1-0.8-0.1   c-0.3,0-0.5-0.1-0.8-0.1c-0.2,0-0.3-0.1-0.5-0.1c-0.1,0-0.2,0-0.3,0c0,0-0.1,0-0.1,0c0,0-0.1,0-0.1,0c0,0-0.1,0-0.1,0c0,0,0,0,0,0   c0,0-0.1,0-0.1,0c-0.2,0-0.3,0-0.5,0c-0.3,0-0.6,0-0.9,0c-0.1,0-0.1,0-0.2,0c0,0,0,0-0.1,0c-0.1,0.1-0.2,0.1-0.3,0.1   c-0.1,0-0.1,0.1-0.2,0.1c-0.1,0-0.2,0.1-0.3,0.1c-0.4,0.1-0.6,0.3-0.8,0.6c0,0.1-0.1,0.1-0.2,0.1c0-0.1,0.1-0.2,0.1-0.3   c0,0,0,0,0,0c-0.1,0-0.1,0.2-0.2,0.2c0,0,0-0.1,0-0.1c0-0.1,0.1-0.1,0.1-0.2c0-0.1,0.1-0.1,0.1-0.2c0,0,0,0,0,0c0,0,0,0-0.1,0   c-0.1,0.1-0.2,0.2-0.3,0.2c-0.1,0-0.1,0.1-0.2,0.2c0,0-0.1,0.1-0.1,0.1c0,0-0.1,0-0.1,0c0,0.2-0.1,0.3-0.2,0.5   c0,0.1,0,0.2-0.1,0.3c-0.2,0-0.2,0-0.3,0.2c-0.1,0.1-0.2,0.2-0.2,0.4c0,0,0,0.1-0.1,0.1c0-0.3,0.1-0.5,0.1-0.7   c0.1-0.2,0.2-0.5,0.2-0.7c0.1-0.1,0.2-0.1,0.3-0.2l0,0c-0.1,0-0.2,0.1-0.3,0.1c0,0-0.1,0-0.1,0c0,0-0.1,0-0.1,0c0,0-0.1,0-0.1,0   c-0.1,0-0.2,0-0.2,0c0,0,0,0-0.1,0c0,0,0,0-0.1,0c-0.1,0-0.2,0-0.3-0.1c0,0-0.1,0-0.1-0.1l0-0.1c-0.1,0-0.2-0.1-0.2-0.2   c0,0,0-0.1,0-0.1c-0.1-0.2-0.1-0.4,0-0.6c0.1-0.1,0.1-0.2,0.1-0.3c0-0.1,0-0.2-0.1-0.3c-0.1-0.1-0.1-0.1-0.2-0.2   c0-0.1,0.1-0.2,0.1-0.2c0,0,0.1,0,0.1-0.1c0.1,0,0.1-0.1,0.2-0.1c0,0,0-0.1,0-0.1c0-0.1,0.1-0.1,0.1-0.1c0,0,0,0,0,0   c0,0,0,0,0.1,0c0.1,0,0.2,0,0.2-0.1c0.2-0.1,0.3-0.2,0.4-0.3c0.1-0.1,0.1-0.1,0.3-0.2c0.1,0,0.1,0,0.2,0c0.1,0,0.1-0.1,0.1-0.2   c0.1,0.1,0.3,0.1,0.4,0.1c0.1,0,0.2,0,0.3-0.1c0,0,0.1,0.1,0.1,0.1c0,0,0,0,0.1,0c0,0,0.1,0,0.1,0l0,0c0-0.1,0.1-0.1,0.1-0.1   c0,0,0,0,0.1,0C98.8,12,98.9,12,99,12c0,0,0.1,0,0.1,0c0.2,0,0.4,0,0.6,0c0.2,0.1,0.3,0.1,0.4,0.1c0.1,0,0.2,0,0.3-0.1   c0.1,0.1,0.2,0.2,0.4,0.2c0.1,0,0.2,0.1,0.2,0.2c0.1,0.2,0.2,0.3,0.4,0.4c0.1,0.1,0.1,0.1,0.1,0.3c0,0.1,0,0.1-0.1,0.2   c0,0.1-0.1,0.1-0.1,0.2l0,0c0.2,0.1,0.5,0.1,0.7,0.1c0.3,0,0.6,0,0.9-0.1c0.3,0,0.5-0.1,0.8-0.1c0.1-0.1,0.1-0.2,0.3-0.2l0.1,0   c0.1-0.1,0.2-0.2,0.3-0.2c0-0.1-0.1-0.2-0.1-0.3c-0.2,0-0.3-0.1-0.4-0.2c0-0.1-0.1-0.1-0.2-0.2c-0.1-0.1-0.2-0.1-0.4-0.1   c-0.2,0-0.2,0-0.2-0.2c0,0,0,0,0-0.1c0,0-0.1,0-0.1,0c-0.1,0-0.1-0.1-0.1-0.1c0-0.1,0-0.1-0.1-0.2c0-0.1,0-0.1,0-0.1   c0.1-0.1,0.1-0.2,0-0.3c0,0-0.1,0-0.1-0.1c0,0,0-0.1,0.1-0.1c0.1-0.1,0.1-0.1,0.1-0.2c0-0.1,0-0.2,0-0.2c0-0.2-0.1-0.3-0.2-0.5   c-0.1-0.1-0.1-0.1-0.2-0.1c0,0,0,0,0,0c-0.3,0-0.6,0-0.9,0.1c-0.2,0.1-0.4,0.1-0.5,0.1c-0.3,0.1-0.7,0.1-1,0.2   c-0.2,0-0.5,0.1-0.7,0.2c-0.3,0.1-0.6,0.2-1,0.3c-0.1,0-0.1,0.1-0.2,0.1c-0.1,0-0.1,0.1-0.2,0.1c0,0-0.1,0-0.1,0   c-0.1,0-0.1,0-0.2,0.1c0,0-0.1,0-0.1,0c0,0,0,0-0.1,0h0c-0.1,0.2-0.3,0.2-0.4,0.3c-0.1,0.1-0.1,0.1-0.2,0.1   c-0.1,0.1-0.2,0.1-0.2,0.2c-0.1,0.1-0.1,0.1-0.2,0.1c-0.1,0-0.2,0.1-0.3,0.2l0,0c0,0.1-0.1,0.1-0.2,0.2c-0.1,0.1-0.2,0.2-0.3,0.2   c0,0.1,0,0.2-0.1,0.3c0,0,0,0.1,0,0.1c0,0.2-0.1,0.3-0.3,0.4l0,0c0,0.1,0.1,0.1,0,0.2c0,0-0.1,0.1-0.1,0.1   c-0.1,0.1-0.1,0.3,0.1,0.4c0,0.1-0.1,0.2,0,0.3c0,0.1,0,0.2,0,0.3c0.1,0.2,0,0.3,0.1,0.5c0,0,0,0.1,0,0.2   c-0.1,0.1-0.1,0.2-0.2,0.2c-0.1,0-0.1,0.1,0,0.2c0.1,0.1,0,0.1,0,0.2c-0.1,0.1-0.1,0.3,0,0.5c0,0-0.1,0-0.1,0.1   c-0.1,0-0.1,0.1-0.1,0.1c0,0.1,0,0.3-0.1,0.4c-0.1,0.2-0.2,0.4-0.3,0.6c-0.1,0.2-0.1,0.4-0.2,0.6c0,0.1,0,0.3,0,0.4   c0,0.2,0.1,0.4,0.1,0.5c0.1,0.3,0.2,0.5,0.3,0.8c0.1,0.2,0.1,0.2,0.1,0.4c-0.1,0.1-0.2,0.2-0.4,0.2c0,0.1,0.1,0.2,0,0.3   c0,0-0.1,0.1-0.1,0.1l-0.1,0c-0.1,0-0.2,0-0.3,0c-0.2,0-0.4,0-0.5,0c0,0-0.1,0-0.1-0.1c-0.1-0.1-0.1-0.1-0.2-0.2   c-0.1-0.2-0.2-0.4-0.3-0.6c-0.2-0.2-0.3-0.5-0.5-0.7c0.1,0,0.2,0.1,0.3,0.2c0.1,0.1,0.2,0.2,0.4,0.3c0,0,0.1,0.1,0.1,0.1   c0,0,0,0,0.1,0c0,0,0,0,0.1,0c0.1,0,0.1-0.1,0-0.1c0,0,0-0.1,0-0.1c0-0.1-0.1-0.1-0.1-0.2c0-0.1-0.1-0.2-0.1-0.3   c0-0.1,0-0.3-0.1-0.4c0-0.1,0-0.2-0.1-0.3c-0.1,0-0.1-0.1-0.1-0.2c0-0.1,0-0.2,0-0.4c0,0,0-0.1,0-0.1c0-0.1-0.1-0.2-0.1-0.3   c0,0,0,0,0,0c0-0.1,0-0.1,0.1-0.2c0.1-0.1,0.1-0.3-0.1-0.4c0,0,0-0.1,0-0.1c0,0-0.1-0.1-0.1-0.1c0,0,0,0,0,0c0-0.1,0-0.2,0-0.4   c0-0.1,0-0.2,0-0.3c0-0.1,0-0.2,0.1-0.3c0.1-0.2,0.1-0.3-0.1-0.5c0,0,0-0.1-0.1-0.1c0-0.1-0.1-0.1-0.1-0.2c0,0-0.1,0-0.1,0   c-0.1,0-0.1,0.1-0.2,0.1c0,0,0,0-0.1,0c0,0,0,0,0,0c0,0-0.1,0-0.1,0.1c-0.2,0.2-0.5,0.3-0.7,0.5c0,0.1-0.1,0.1-0.2,0.1   c-0.2,0.1-0.2,0.2-0.3,0.3c-0.1,0.1,0,0.2,0,0.2c-0.1,0-0.1,0.1-0.2,0.1c0,0.1,0.1,0.1,0.1,0.2c0,0.1-0.1,0.1-0.1,0.2   c0,0.1,0,0.1,0,0.2c-0.1,0.1-0.1,0.1-0.1,0.1c-0.1,0.1-0.1,0.1-0.2,0.2c-0.2,0.2-0.1,0.2,0.1,0.3l0,0.1c-0.1,0.1-0.1,0.2,0,0.2   c0,0,0.1,0,0.1,0c0,0,0.1,0,0.1,0c0.1-0.1,0.2-0.1,0.3-0.2c0.1-0.1,0.2-0.2,0.3-0.2c0,0,0,0,0,0c0,0.1-0.1,0.1-0.1,0.2   c-0.1,0.1,0,0.1,0,0.2c-0.1,0-0.1,0.1-0.2,0.1c0,0.1,0.1,0.1,0.1,0.1c0,0-0.1,0.1-0.1,0.1c0,0,0,0.1,0,0.1c0,0-0.1,0.1-0.1,0.1   c0,0-0.1,0.1-0.1,0.1c-0.1,0.2-0.1,0.2,0.1,0.3l0,0c0,0.1-0.1,0.1,0,0.2c0,0,0.1,0,0.1,0c0,0,0.1,0,0.1,0c0.1-0.1,0.2-0.1,0.2-0.2   c0.1-0.1,0.2-0.1,0.3-0.2c0.1,0.1,0.2,0.1,0.4,0.1c0,0.1,0,0.1,0,0.2c0,0.1,0,0.2,0,0.3c0,0-0.1,0.1-0.2,0.1   c0,0.1-0.1,0.3-0.2,0.3c0,0,0,0-0.1,0c-0.1,0.1-0.1,0.2-0.2,0.4c0,0.1-0.1,0.1-0.2,0.1c0,0,0,0,0,0c0,0,0,0,0,0   c-0.1,0-0.1,0-0.2,0.1c0,0.1-0.1,0.2-0.1,0.3c0,0-0.1,0-0.1,0h0c-0.1,0-0.2,0-0.2,0.1c-0.1,0.2-0.3,0.3-0.4,0.5c0,0,0,0.1-0.1,0.1   c-0.2,0-0.4,0-0.6,0c0,0,0,0-0.1,0c0,0,0,0,0,0c-0.1,0-0.1,0.1-0.2,0.1c0,0-0.1,0-0.1,0c0,0-0.1,0-0.1,0c0,0,0,0,0,0c0,0,0,0,0,0   c-0.1,0-0.2-0.1-0.2-0.2c0,0,0-0.1,0-0.1c0-0.1-0.1-0.2-0.2-0.2c-0.2,0-0.2-0.2-0.2-0.3c0-0.1,0-0.1,0-0.2c0-0.1,0-0.1,0-0.2   c0.1-0.1,0.2-0.2,0.2-0.4c0-0.1,0-0.2,0.1-0.2c0.1-0.1,0.1-0.2,0.1-0.4c0-0.1,0-0.2-0.1-0.3c-0.1-0.1-0.2-0.1-0.3-0.2   c0-0.1,0-0.1,0.1-0.2c-0.1,0-0.2-0.1-0.3-0.1c0-0.2,0.1-0.4,0.2-0.5c0.1-0.1,0.2-0.3,0.3-0.4l0,0c0-0.1,0-0.1,0-0.2   c0,0-0.1,0-0.1,0c0,0,0,0-0.1,0c0,0-0.1,0-0.1,0.1c-0.1,0.1-0.1,0.1-0.2,0.1c0,0,0,0-0.1,0c0,0,0,0,0,0c0,0-0.1,0-0.1,0   c-0.1,0.2-0.3,0.1-0.4,0.2c0,0-0.1,0-0.1,0c-0.1,0-0.2,0.1-0.3,0.1h0c-0.2-0.1-0.3-0.1-0.5-0.2c-0.1,0-0.1,0-0.2,0   c-0.1-0.1,0-0.1,0-0.2c0,0,0.1,0,0.1,0c0.1,0,0.1-0.1,0-0.2c-0.1-0.1-0.2-0.1-0.2-0.2c0-0.1,0-0.1,0-0.2c0.1-0.2,0.1-0.4,0.1-0.5   c0-0.1,0-0.2-0.1-0.3c0-0.1-0.1-0.1-0.1-0.2c-0.1,0.1-0.1,0.3-0.2,0.4c0,0,0,0,0,0c0,0,0.1,0,0.1-0.1c0,0,0-0.1,0.1-0.1   c0,0,0,0,0,0c0,0.1-0.1,0.2-0.1,0.3c0,0.1,0,0.2-0.1,0.2c-0.1,0.3-0.1,0.6-0.1,0.9c0,0,0,0.1,0,0.1c0.1,0.1,0,0.1,0,0.2   c0,0.2,0,0.3-0.1,0.5c0,0.1,0,0.2,0,0.3c0,0,0,0.1,0,0.1c0,0-0.1,0.1-0.1,0.1c0,0.1,0.1,0.3,0.1,0.4c-0.1,0.2-0.1,0.5-0.1,0.7   c0,0,0,0.1,0,0.1c0,0.1,0,0.1,0,0.2c0,0.1-0.1,0.1,0,0.2c0,0,0,0.1,0,0.1c0,0,0,0.1,0,0.1c0,0,0,0.1,0,0.1c0,0,0,0.1,0,0.1   c0.1,0,0.2,0.1,0.2,0.1c0,0,0.1,0.1,0.1,0.1c0,0,0,0.1,0,0.1c0,0.1,0.1,0.2,0,0.4c-0.1,0.2-0.1,0.3,0,0.5c0,0,0,0.1,0,0.2   c0,0.1-0.1,0.3-0.1,0.4c0,0,0,0.1-0.1,0.1c-0.1,0-0.1,0.1-0.1,0.2c-0.1,0.1-0.3,0.2-0.5,0.3C85,23,85,23,84.9,23c0,0,0,0-0.1,0   c0,0,0,0-0.1,0c-0.1,0-0.2,0-0.2,0C84.5,23.1,84.4,23.1,84.3,23.1"></path>		<path class="st2" d="M94.1,27.3L94.1,27.3L94.1,27.3L94.1,27.3L94.1,27.3 M94.2,27.5L94.2,27.5L94.2,27.5L94.2,27.5L94.2,27.5z    M96.6,33L96.6,33L96.6,33L96.6,33L96.6,33 M95.2,33.3L95.2,33.3L95.2,33.3L95.2,33.3L95.2,33.3 M92.2,35.4c0,0-0.1,0-0.2,0   c-0.2,0-0.4,0-0.5-0.1c-0.1,0-0.1,0-0.2,0c-0.1,0-0.1,0-0.2,0c-0.1,0-0.1-0.1-0.2-0.1c-0.1,0-0.1,0-0.2,0c0,0,0,0,0,0c0,0,0,0,0,0   c-0.1,0-0.3,0-0.4-0.1c0,0-0.1,0-0.1,0c-0.1,0-0.2-0.1-0.2-0.2c0-0.1-0.1-0.2-0.2-0.2c-0.1-0.1-0.2-0.2-0.2-0.4c0,0,0-0.1,0-0.1   c0-0.1-0.1-0.1-0.1-0.2c0,0-0.1-0.1-0.1-0.1c0-0.1,0-0.1,0-0.2c-0.1-0.2-0.1-0.4-0.2-0.6v0c0-0.1,0.2-0.1,0.1-0.3v-0.3   c0-0.1,0.2-0.1,0.2-0.2c0,0,0-0.1,0.1-0.1c0.1-0.1,0.1-0.2,0.1-0.3c0,0,0-0.1,0-0.1c0.1-0.1,0.3-0.1,0.4-0.2   c0-0.1,0.1-0.2,0.1-0.3c0,0,0,0,0,0c0.1,0,0.2-0.1,0.3-0.1c0.1-0.1,0.2-0.2,0.3-0.3c0-0.1,0.1-0.1,0.2-0.2c0-0.1,0-0.2,0.1-0.3   c0.2-0.1,0.4-0.4,0.5-0.6c0.1-0.1,0.1-0.2,0.2-0.3c0,0,0.1-0.1,0.1-0.1c0.1-0.2,0.2-0.4,0.5-0.5c0.2-0.1,0.4-0.2,0.6-0.4   c0.2-0.2,0.3-0.3,0.5-0.5c0.1-0.1,0.3-0.2,0.4-0.3c-0.3,0-0.6,0.2-0.9,0.3c-0.1-0.1,0-0.2,0.1-0.3c-0.2,0-0.4,0.1-0.5,0.2   c-0.1,0.1-0.1,0.1-0.2,0.1c0,0,0,0-0.1,0l-0.1,0c0,0.1-0.1,0.1-0.2,0.1c0,0,0,0-0.1,0c0,0,0,0-0.1,0c0,0-0.1,0-0.1,0   c-0.1,0-0.1,0-0.2,0.1c-0.1,0-0.1,0.1-0.2,0.1c-0.1,0-0.2,0.1-0.3,0.2c-0.2,0-0.3-0.1-0.5-0.1c-0.1-0.1-0.3,0-0.4-0.1   c-0.1,0-0.1,0-0.2,0.1l-0.1,0c-0.1-0.1-0.2-0.2-0.3-0.3c-0.1-0.1-0.2-0.2-0.2-0.4c0,0,0-0.1-0.1-0.1c-0.1,0-0.1-0.1-0.2-0.2   c0-0.1-0.1-0.1-0.1-0.2c0-0.1,0-0.1,0-0.2c0-0.1,0.1-0.2,0.1-0.3c0,0,0-0.1,0.1-0.1c0.1-0.1,0.2-0.1,0.2-0.2   c0-0.1,0.1-0.2,0.2-0.3c0.1-0.1,0.1-0.2,0.2-0.3c0.1-0.1,0.1-0.2,0.3-0.3c0,0,0.1-0.1,0.1-0.1c0.1-0.2,0.3-0.3,0.4-0.4   c0.1-0.1,0.2-0.2,0.3-0.2c0.1-0.1,0.2-0.2,0.3-0.2c0.1-0.1,0.2-0.1,0.3-0.2c0.2-0.1,0.3-0.2,0.5-0.3c0.1,0,0.2-0.1,0.2-0.1   c0.2-0.1,0.4-0.2,0.6-0.3c0.1-0.1,0.3-0.1,0.4-0.2c0.1,0,0.2-0.1,0.3-0.1c0,0,0,0,0.1,0c0,0,0,0,0,0c0.1,0,0.1,0,0.2-0.1   c0.1-0.1,0.2-0.2,0.3-0.2c0,0,0,0,0,0c0.2-0.1,0.4-0.2,0.6-0.3l0,0c-0.1-0.1-0.2-0.1-0.5-0.2c0,0,0-0.1,0-0.1c-0.1,0-0.1,0-0.2,0   c-0.1,0-0.2,0-0.3-0.1c0,0,0,0-0.1,0c0,0,0,0,0,0c0,0-0.1,0-0.1,0c-0.1,0-0.2,0-0.4-0.1c-0.3,0-0.5-0.1-0.8-0.3   c-0.1-0.1-0.2-0.2-0.2-0.3c0-0.1-0.1-0.1-0.1-0.2c-0.1-0.1-0.1-0.2-0.2-0.3c0,0,0.1-0.1,0.1-0.1c0.1,0,0.2-0.1,0.3-0.1   c0.4,0,0.8-0.1,1.3-0.1c0,0,0.1,0,0.1,0c0,0,0.1,0,0.1,0c0.1,0,0.3,0,0.4,0c0.2,0,0.4,0,0.5,0c0.1,0,0.2,0,0.2,0   c0.1,0,0.1,0,0.2,0c0,0,0,0,0.1,0c0,0,0.1,0,0.1,0c0,0,0,0,0.1,0c0,0,0,0,0,0c0.2,0.1,0.5,0.1,0.7,0.2l0.1,0c0,0,0,0,0.1,0   c0,0,0.1,0,0.1,0c0.2,0.1,0.2,0.1,0.3,0.1c0.1,0.1,0.1,0.2,0.3,0.2c0.1,0,0.1,0.2,0.2,0.2c0.1,0.2,0.3,0.4,0.5,0.5   c0.1,0.1,0.1,0.2,0.2,0.4c0,0.1,0,0.2,0,0.3c0,0.1-0.1,0.3-0.1,0.4c0,0-0.1,0.1-0.2,0.1c-0.1,0-0.1,0.1-0.2,0.1   c-0.3,0.1-0.6,0.2-1,0.2c-0.1,0-0.1,0-0.1-0.1c-0.1-0.1-0.3-0.2-0.4-0.2c0,0,0,0-0.1,0c0,0,0,0,0,0c0,0-0.1,0-0.1-0.1   c-0.1-0.1-0.3-0.1-0.5-0.2c-0.1,0-0.1,0-0.2,0c-0.3,0-0.6,0.1-0.9,0.2c-0.1,0-0.2,0.1-0.3,0.2c-0.2,0.1-0.3,0.3-0.5,0.4   c-0.1,0.1-0.3,0.3-0.4,0.5c-0.1,0.2-0.2,0.5-0.4,0.7c-0.1,0.1-0.2,0.2-0.3,0.3c-0.1,0.1-0.1,0.1-0.2,0.2c0,0.1-0.1,0.1-0.1,0.2   c0,0.1,0,0.1,0.1,0.1h0c0.1,0,0.2,0,0.3,0c0,0,0,0,0.1,0c0,0,0.1,0,0.1,0l0.1,0c0.1,0,0.1,0,0.2,0c0.4-0.1,0.9-0.1,1.3-0.3   c0,0,0.1,0,0.1,0c0.2,0,0.3-0.1,0.5-0.1c0.1,0,0.2,0,0.2-0.1c0,0,0.1-0.1,0.1-0.1c0.2,0,0.4-0.2,0.6-0.3c0,0,0.1-0.1,0.1-0.1   c0,0,0.1,0,0.1,0c0.1,0,0-0.1,0.1-0.1h0c0.1,0,0.2-0.1,0.2-0.2c0-0.1,0.1-0.2,0.2-0.2c0.1,0,0.1-0.1,0.2-0.1   c0-0.1,0.1-0.1,0.2-0.1c0,0,0.1-0.1,0.1-0.2c0.1,0,0.2,0,0.2,0c0.2,0,0.4,0,0.6-0.1c0,0,0.1,0,0.1,0c0.1,0,0.1,0,0.2,0   c0.1,0.1,0.3,0.2,0.4,0.2c0.1,0,0.2,0.2,0.3,0.3c0,0.1,0.1,0.1,0.1,0.2c0.1,0.1,0.1,0.2,0.2,0.3c0,0,0,0.1,0,0.1   c-0.1,0.1,0.1,0.2,0.1,0.4c-0.1,0.1-0.2,0.3-0.2,0.4c0,0.1-0.2,0.2-0.2,0.3c-0.1,0-0.2,0.1-0.4,0.1c0,0-0.1,0-0.1,0   c0,0.2-0.1,0.3-0.1,0.4c0,0.1-0.1,0.2-0.2,0.2c0,0,0,0,0,0c0,0,0,0,0,0c0,0-0.1,0-0.1,0.2c-0.1,0-0.2,0-0.2,0   c-0.1,0-0.1,0.1-0.2,0.1c0,0,0,0,0,0c0,0,0,0,0,0c0,0-0.1,0-0.1,0.1c-0.2,0.2-0.5,0.3-0.7,0.5c-0.3,0.2-0.5,0.4-0.7,0.6   c-0.2,0.2-0.4,0.4-0.6,0.5c-0.2,0.1-0.5,0.3-0.6,0.5c-0.2,0.2-0.3,0.4-0.5,0.7c-0.2,0.3-0.3,0.7-0.4,1c0,0,0,0.1,0,0.1   c0,0,0,0.1,0,0.1c0.1,0,0.1,0.1,0.2,0.1c0,0,0.1,0.1,0.1,0.1c0.1,0,0.2,0,0.2,0c0.1,0,0.2,0,0.3,0.1c0,0,0.1,0,0.1,0c0,0,0,0,0,0   c0,0,0,0,0,0c0,0,0,0,0,0c0,0,0,0,0,0c0.2,0.1,0.4,0.1,0.6,0.1c0.1,0,0.1,0,0.2,0c0.1,0,0.1,0,0.2,0c0.2-0.1,0.5-0.1,0.7-0.1   c0.1,0,0.3-0.1,0.4-0.1c0.3-0.1,0.5-0.2,0.8-0.3c0.1,0,0.2-0.1,0.3-0.2c0.1-0.1,0.2-0.2,0.3-0.2c0.1,0,0,0.1,0,0.1   c-0.2,0.1-0.2,0.3-0.2,0.5c0,0,0.1,0,0.1,0c0.1,0,0.2-0.1,0.3-0.1c0.1-0.1,0.2-0.2,0.3-0.3c0.1-0.2,0.4-0.2,0.5-0.3c0,0,0,0,0,0   c0,0,0,0,0,0c0,0,0,0,0,0c0.1,0,0.1,0,0.1-0.1c0-0.1,0.1-0.1,0.1-0.1h0c0,0.1-0.1,0.1-0.1,0.2c0,0.1-0.1,0.2-0.1,0.3   c0,0,0,0.1,0,0.1c0,0.1,0.1,0.3,0,0.4c0,0,0,0.1,0,0.1c0,0.1,0,0.2-0.1,0.3c-0.1,0.1-0.2,0.3-0.3,0.4c0,0-0.1,0.1-0.1,0.1   c0,0.1-0.1,0.3-0.2,0.3c0,0,0,0-0.1,0.1c0.2,0,0.3-0.2,0.4-0.2c0,0.2,0,0.3-0.1,0.4c-0.1,0.1-0.1,0.1-0.1,0.2   c0,0.1-0.1,0.1-0.1,0.1c0,0.1-0.1,0.1-0.1,0.2c-0.1,0.2-0.2,0.3-0.3,0.3c-0.1,0.1-0.2,0.1-0.3,0.2c-0.1,0-0.1,0.1-0.2,0.1   c-0.1,0-0.1,0-0.2,0.1c-0.2,0.1-0.4,0.2-0.7,0.2c-0.4,0.1-0.8,0.1-1.1,0.2c-0.1,0-0.1,0-0.2,0c0,0-0.1,0-0.1,0c0,0,0,0,0,0   c-0.1,0-0.1,0-0.2,0.1c0,0,0.1,0,0.1,0.1l0,0c-0.1,0-0.1,0-0.2,0c-0.1,0-0.2-0.1-0.3-0.1c-0.1,0.1-0.3,0.2-0.5,0.2c0,0,0,0,0,0   c0,0,0,0,0,0c-0.2,0-0.4,0-0.6,0.1c-0.1,0.1-0.3,0.1-0.5,0.1c0,0-0.1,0.1-0.1,0.2c0,0-0.1,0-0.2,0c0,0.1,0,0.1,0,0.2l-0.1,0   C92.4,35.4,92.3,35.4,92.2,35.4"></path>		<path class="st2" d="M103.5,32.1L103.5,32.1L103.5,32.1L103.5,32.1L103.5,32.1L103.5,32.1L103.5,32.1 M106.6,34.9   c-0.1-0.1-0.2-0.1-0.2-0.2c-0.1-0.1-0.1-0.1-0.2-0.2c-0.1-0.1-0.1-0.1-0.2-0.1c-0.1,0-0.2-0.1-0.2-0.2c-0.1-0.1-0.2-0.2-0.3-0.3   c-0.1-0.1-0.2-0.3-0.4-0.3c-0.1,0-0.1-0.1-0.2-0.1c-0.1-0.1-0.1-0.1-0.2-0.1c0,0-0.1,0-0.1,0c-0.1,0.2-0.1,0.3-0.1,0.5   c0,0,0.1,0,0.1,0c0,0,0,0.1,0,0.1c0,0.1,0,0.1-0.1,0.2c-0.1-0.1-0.2-0.2-0.3-0.3c-0.1-0.1-0.2-0.2-0.3-0.2   c0.1,0.2,0.3,0.3,0.3,0.6c0,0,0,0-0.1,0c0,0-0.1,0-0.1,0c-0.3-0.2-0.5-0.4-0.7-0.7c-0.1-0.1-0.3-0.3-0.4-0.4   c-0.1-0.1-0.2-0.2-0.4-0.2l-0.1,0c-0.1-0.1-0.2-0.1-0.3-0.1c-0.1,0-0.2,0-0.3,0.1c0,0-0.1,0-0.1,0c-0.1,0-0.2,0-0.2,0l0,0   c-0.1,0-0.2-0.1-0.3-0.1c-0.1-0.1-0.1-0.2-0.2-0.2c0,0,0,0-0.1-0.1c0-0.2-0.1-0.3-0.2-0.4c0,0-0.1-0.1-0.1-0.1   c0.1-0.2-0.1-0.3-0.2-0.4c0-0.1,0-0.2,0-0.3c-0.1-0.1-0.1-0.2-0.1-0.3l0,0c0-0.2-0.1-0.4-0.1-0.7c0,0-0.1,0-0.1,0   c-0.1,0-0.2-0.1-0.1-0.2c0-0.1-0.1-0.2-0.2-0.3c-0.1-0.1-0.1-0.1-0.2-0.2c-0.1-0.2-0.2-0.3-0.3-0.4c-0.2-0.1-0.2-0.3-0.3-0.5   c0-0.1,0-0.1,0-0.2c0,0,0,0,0.1,0c0,0,0.1,0,0.1,0c0.3,0.1,0.5,0.2,0.8,0.3c0.3,0.1,0.6,0.2,0.8,0.3c0.1,0,0.2,0.1,0.3,0.1   c0.1,0.1,0.3,0.1,0.4,0.2c0.1,0.1,0.2,0.2,0.3,0.3c0.1,0.1,0.2,0.3,0.4,0.3c0.1,0.1,0.1,0.2,0.3,0.2c0.1,0,0.2,0.2,0.3,0.2   c0.2,0,0.4,0.1,0.4,0.2c0,0,0.1,0,0.1,0c0.1,0,0.2,0,0.2,0.1c0,0,0.1,0,0.1,0c0.1,0,0.1,0,0.1,0.1c0,0.1,0.1,0.1,0.1,0.2   c0,0,0,0,0.1,0.1c0,0.1,0,0.2,0.1,0.3l0,0.1c0,0.1,0,0.2,0.1,0.2l0,0c0.1,0.2,0.3,0.4,0.4,0.6c0.1,0.2,0.3,0.4,0.4,0.6l0,0.1   c0,0.1-0.1,0.1-0.1,0.1v0l0,0l0.1,0c0.3,0.5,0.7,1,1,1.4C106.4,34.6,106.5,34.7,106.6,34.9"></path>		<path class="st2" d="M100,19.7c-0.1,0-0.1-0.1-0.2-0.1c-0.1,0-0.1-0.1-0.2-0.1c-0.1,0-0.2,0.1-0.3,0.1c-0.1,0-0.2,0-0.2,0   c-0.1,0-0.2,0-0.2,0c0,0,0,0,0,0c-0.2-0.2-0.4-0.2-0.6-0.2c-0.1,0-0.2,0-0.2,0c-0.1-0.1,0-0.2,0-0.3c0-0.1-0.1-0.2-0.1-0.3   c0-0.1-0.1-0.1-0.2-0.2c-0.1,0-0.1,0-0.2-0.1c-0.1,0-0.2,0-0.2-0.1c0-0.1-0.1-0.1-0.2-0.2c-0.1-0.1-0.1-0.3-0.2-0.4   c0,0-0.1-0.1-0.1-0.1c0,0-0.1-0.1-0.1-0.1c0,0,0-0.1,0-0.1c0.1-0.1,0.1-0.1,0.1-0.2c0,0,0,0,0,0c0,0,0,0,0,0   c0,0.1-0.1,0.1-0.1,0.2c0,0,0-0.1-0.1-0.1c0,0,0-0.1,0-0.1c0.1-0.1,0.1-0.1,0-0.2c0-0.1,0-0.1,0.1-0.2c0.1-0.1,0.2-0.2,0.4-0.2h0   c0,0,0,0,0,0c0.1,0,0.2,0,0.3,0c0.1,0,0.2,0,0.3-0.1c0.1,0,0.1-0.1,0.2-0.1c0.1,0,0.2,0.1,0.3,0.1c0.1,0,0.1,0,0.2,0   c0.1,0,0.2,0,0.3,0c0.2,0,0.3-0.1,0.5-0.1c0,0,0.1,0,0.1,0c0,0,0,0,0,0c0.1,0,0.1,0,0.2,0c0,0,0.1,0,0.1,0c0.1,0,0.1,0,0.2,0.1   c0,0,0.1,0.1,0.1,0.1c0.2,0.1,0.2,0.2,0.1,0.4c0,0,0,0.1,0,0.1c0,0.2,0,0.3-0.2,0.4c0,0,0,0,0,0.1c0.1,0.1,0.2,0.2,0.3,0.2   c0.1,0.1,0.2,0.1,0.3,0.1c0.2,0,0.3,0.1,0.5,0.2c0.2,0.1,0.3,0.3,0.3,0.4c0,0.1,0,0.2,0,0.3c0.1,0.1,0.1,0.2,0,0.3l0,0.1   c-0.1,0.1-0.3,0.1-0.4,0.2c-0.1,0-0.1,0-0.2,0c0,0-0.1,0-0.1,0c0,0,0,0-0.1,0c0,0-0.1,0-0.1,0c0,0,0,0-0.1,0c0,0,0,0,0,0   c-0.1,0-0.1,0-0.1,0C100.1,19.6,100.1,19.6,100,19.7"></path>		<path class="st2" d="M96.8,17.5C96.8,17.5,96.8,17.5,96.8,17.5c0-0.1,0-0.2,0-0.3c0,0,0,0,0,0c0,0,0,0,0,0   C96.9,17.4,96.9,17.4,96.8,17.5C96.8,17.5,96.8,17.5,96.8,17.5z"></path>		<defs>							<filter id="Adobe_OpacityMaskFilter_00000117678850480211126020000003242622920672085915_" filterUnits="userSpaceOnUse" x="96.7" y="17.1" width="0.3" height="0.5">							</filter>		</defs>					<mask maskUnits="userSpaceOnUse" x="96.7" y="17.1" width="0.3" height="0.5" id="mask16_111_2063_00000111184136296451955030000005895636585076070828_">			<path style="fill:#FFFFFF;filter:url(#Adobe_OpacityMaskFilter_00000117678850480211126020000003242622920672085915_);" d="    M96.8,17.5C96.8,17.5,96.8,17.5,96.8,17.5c0-0.1,0-0.2,0-0.3c0,0,0,0,0,0c0,0,0,0,0,0C96.9,17.4,96.9,17.4,96.8,17.5    C96.8,17.5,96.8,17.5,96.8,17.5z"></path>		</mask>		<g class="st17">			<path class="st2" d="M97,17.1h-0.3v0.5H97V17.1z"></path>			<defs>									<filter id="Adobe_OpacityMaskFilter_00000036929889487000696900000004252977988479110068_" filterUnits="userSpaceOnUse" x="96.7" y="17.1" width="0.3" height="0.5">									</filter>			</defs>							<mask maskUnits="userSpaceOnUse" x="96.7" y="17.1" width="0.3" height="0.5" id="mask17_111_2063_00000120560176231612712870000000236035795993519784_">				<path style="fill:#FFFFFF;filter:url(#Adobe_OpacityMaskFilter_00000036929889487000696900000004252977988479110068_);" d="     M97,17.1h-0.3v0.5H97V17.1z"></path>			</mask>			<g class="st19">				<rect x="96.7" y="17.1" class="st7" width="0.3" height="0.5"></rect>			</g>		</g>		<path class="st2" d="M101.1,9.5h-0.2C101,9.5,101.1,9.5,101.1,9.5C101.1,9.5,101.1,9.5,101.1,9.5C101.1,9.5,101.1,9.5,101.1,9.5"></path>		<defs>							<filter id="Adobe_OpacityMaskFilter_00000086676726938022359740000016520552245701387950_" filterUnits="userSpaceOnUse" x="100.8" y="9.3" width="0.4" height="0.3">							</filter>		</defs>					<mask maskUnits="userSpaceOnUse" x="100.8" y="9.3" width="0.4" height="0.3" id="mask18_111_2063_00000053527067958537926410000017055848044946632894_">			<path style="fill:#FFFFFF;filter:url(#Adobe_OpacityMaskFilter_00000086676726938022359740000016520552245701387950_);" d="    M101.1,9.5h-0.2C101,9.5,101.1,9.5,101.1,9.5C101.1,9.5,101.1,9.5,101.1,9.5C101.1,9.5,101.1,9.5,101.1,9.5"></path>		</mask>		<g class="st21">			<path class="st2" d="M101.2,9.3h-0.4v0.3h0.4V9.3z"></path>			<defs>									<filter id="Adobe_OpacityMaskFilter_00000119076436584109763940000008974685457216214965_" filterUnits="userSpaceOnUse" x="100.8" y="9.3" width="0.4" height="0.3">									</filter>			</defs>							<mask maskUnits="userSpaceOnUse" x="100.8" y="9.3" width="0.4" height="0.3" id="mask19_111_2063_00000165949526611275861110000013579156274335689398_">				<path style="fill:#FFFFFF;filter:url(#Adobe_OpacityMaskFilter_00000119076436584109763940000008974685457216214965_);" d="     M101.2,9.3h-0.4v0.3h0.4V9.3z"></path>			</mask>			<g class="st23">				<rect x="100.8" y="9.3" class="st7" width="0.4" height="0.3"></rect>			</g>		</g>		<path class="st2" d="M100.5,8.3C100.5,8.3,100.4,8.3,100.5,8.3C100.5,8.3,100.5,8.2,100.5,8.3c0.1-0.1,0.1-0.1,0.1-0.1   C100.6,8.3,100.5,8.3,100.5,8.3z M100.4,8.3L100.4,8.3C100.4,8.3,100.4,8.3,100.4,8.3C100.4,8.3,100.4,8.3,100.4,8.3"></path>		<defs>							<filter id="Adobe_OpacityMaskFilter_00000177464247931383310470000014493270690788753332_" filterUnits="userSpaceOnUse" x="100.3" y="8.1" width="0.3" height="0.3">							</filter>		</defs>					<mask maskUnits="userSpaceOnUse" x="100.3" y="8.1" width="0.3" height="0.3" id="mask20_111_2063_00000148643285644763592380000000949655983862577296_">			<path style="fill:#FFFFFF;filter:url(#Adobe_OpacityMaskFilter_00000177464247931383310470000014493270690788753332_);" d="    M100.5,8.3C100.5,8.3,100.4,8.3,100.5,8.3C100.5,8.3,100.5,8.2,100.5,8.3c0.1-0.1,0.1-0.1,0.1-0.1C100.6,8.3,100.5,8.3,100.5,8.3    z M100.4,8.3L100.4,8.3C100.4,8.3,100.4,8.3,100.4,8.3C100.4,8.3,100.4,8.3,100.4,8.3"></path>		</mask>		<g class="st25">			<path class="st2" d="M100.7,8.1h-0.3v0.3h0.3V8.1z"></path>			<defs>									<filter id="Adobe_OpacityMaskFilter_00000020374343763728952730000000537587529904056459_" filterUnits="userSpaceOnUse" x="100.3" y="8.1" width="0.3" height="0.3">									</filter>			</defs>							<mask maskUnits="userSpaceOnUse" x="100.3" y="8.1" width="0.3" height="0.3" id="mask21_111_2063_00000062168824773366245260000015976463414746706324_">				<path style="fill:#FFFFFF;filter:url(#Adobe_OpacityMaskFilter_00000020374343763728952730000000537587529904056459_);" d="     M100.7,8.1h-0.3v0.3h0.3V8.1z"></path>			</mask>			<g class="st27">				<rect x="100.3" y="8.1" class="st7" width="0.3" height="0.3"></rect>			</g>		</g>		<path class="st2" d="M95.7,9.8C95.7,9.8,95.7,9.7,95.7,9.8c0-0.1,0-0.1,0-0.1C95.7,9.7,95.7,9.7,95.7,9.8   C95.7,9.7,95.7,9.8,95.7,9.8"></path>		<defs>							<filter id="Adobe_OpacityMaskFilter_00000054975159931340685470000000945664343452063898_" filterUnits="userSpaceOnUse" x="95.7" y="9.4" width="0.2" height="0.4">							</filter>		</defs>					<mask maskUnits="userSpaceOnUse" x="95.7" y="9.4" width="0.2" height="0.4" id="mask22_111_2063_00000126295778944094345120000002989069563071171769_">			<path style="fill:#FFFFFF;filter:url(#Adobe_OpacityMaskFilter_00000054975159931340685470000000945664343452063898_);" d="    M95.7,9.8C95.7,9.8,95.7,9.7,95.7,9.8c0-0.1,0-0.1,0-0.1C95.7,9.7,95.7,9.7,95.7,9.8C95.7,9.7,95.7,9.8,95.7,9.8"></path>		</mask>		<g class="st29">			<path class="st2" d="M95.9,9.4h-0.2v0.4h0.2V9.4z"></path>			<defs>									<filter id="Adobe_OpacityMaskFilter_00000148646346466822020760000016275131903536542598_" filterUnits="userSpaceOnUse" x="95.7" y="9.4" width="0.2" height="0.4">									</filter>			</defs>							<mask maskUnits="userSpaceOnUse" x="95.7" y="9.4" width="0.2" height="0.4" id="mask23_111_2063_00000080927025770813985860000009231696422177842336_">				<path style="fill:#FFFFFF;filter:url(#Adobe_OpacityMaskFilter_00000148646346466822020760000016275131903536542598_);" d="     M95.9,9.4h-0.2v0.4h0.2V9.4z"></path>			</mask>			<g class="st31">				<rect x="95.7" y="9.4" class="st7" width="0.2" height="0.4"></rect>			</g>		</g>		<path class="st2" d="M99.8,8.3C99.9,8.3,99.9,8.2,99.8,8.3l0.1-0.1L99.8,8.3C99.9,8.3,99.9,8.3,99.8,8.3"></path>		<defs>							<filter id="Adobe_OpacityMaskFilter_00000070113363022461705080000002288152368613994163_" filterUnits="userSpaceOnUse" x="99.8" y="8.1" width="0.3" height="0.3">							</filter>		</defs>					<mask maskUnits="userSpaceOnUse" x="99.8" y="8.1" width="0.3" height="0.3" id="mask24_111_2063_00000003099285216343961640000013552443725801300105_">			<path style="fill:#FFFFFF;filter:url(#Adobe_OpacityMaskFilter_00000070113363022461705080000002288152368613994163_);" d="    M99.8,8.3C99.9,8.3,99.9,8.2,99.8,8.3l0.1-0.1L99.8,8.3C99.9,8.3,99.9,8.3,99.8,8.3"></path>		</mask>		<g class="st33">			<path class="st2" d="M100.1,8.1h-0.3v0.3h0.3V8.1z"></path>			<defs>									<filter id="Adobe_OpacityMaskFilter_00000174560838298680506670000009927406630827060410_" filterUnits="userSpaceOnUse" x="99.8" y="8.1" width="0.3" height="0.3">									</filter>			</defs>							<mask maskUnits="userSpaceOnUse" x="99.8" y="8.1" width="0.3" height="0.3" id="mask25_111_2063_00000023972235266738235210000010407783224257942409_">				<path style="fill:#FFFFFF;filter:url(#Adobe_OpacityMaskFilter_00000174560838298680506670000009927406630827060410_);" d="     M100.1,8.1h-0.3v0.3h0.3V8.1z"></path>			</mask>			<g class="st35">				<rect x="99.8" y="8.1" class="st7" width="0.3" height="0.3"></rect>			</g>		</g>		<path class="st2" d="M95.7,9.2L95.7,9.2L95.7,9.2L95.7,9.2L95.7,9.2z"></path>		<defs>							<filter id="Adobe_OpacityMaskFilter_00000096762378871958725630000004204497549451403446_" filterUnits="userSpaceOnUse" x="95.7" y="9" width="0.2" height="0.3">							</filter>		</defs>					<mask maskUnits="userSpaceOnUse" x="95.7" y="9" width="0.2" height="0.3" id="mask26_111_2063_00000008146546106807328150000008271674120534580144_">			<path style="fill:#FFFFFF;filter:url(#Adobe_OpacityMaskFilter_00000096762378871958725630000004204497549451403446_);" d="    M95.7,9.2L95.7,9.2L95.7,9.2L95.7,9.2L95.7,9.2z"></path>		</mask>		<g class="st37">			<path class="st2" d="M95.9,9h-0.2v0.3h0.2V9z"></path>			<defs>									<filter id="Adobe_OpacityMaskFilter_00000089541665950086021810000001885512884626795929_" filterUnits="userSpaceOnUse" x="95.7" y="9" width="0.2" height="0.3">									</filter>			</defs>							<mask maskUnits="userSpaceOnUse" x="95.7" y="9" width="0.2" height="0.3" id="mask27_111_2063_00000101079552377553499010000012735308182935751309_">				<path style="fill:#FFFFFF;filter:url(#Adobe_OpacityMaskFilter_00000089541665950086021810000001885512884626795929_);" d="     M95.9,9h-0.2v0.3h0.2V9z"></path>			</mask>			<g class="st39">				<rect x="95.7" y="9" class="st7" width="0.2" height="0.3"></rect>			</g>		</g>		<path class="st2" d="M101.3,9.5c0,0-0.1,0-0.1,0C101.2,9.4,101.2,9.4,101.3,9.5C101.3,9.4,101.3,9.4,101.3,9.5z"></path>		<defs>							<filter id="Adobe_OpacityMaskFilter_00000156561524005484862720000017189535848437479595_" filterUnits="userSpaceOnUse" x="101.1" y="9.3" width="0.3" height="0.3">							</filter>		</defs>					<mask maskUnits="userSpaceOnUse" x="101.1" y="9.3" width="0.3" height="0.3" id="mask28_111_2063_00000111870087990783311850000006140111728545671353_">			<path style="fill:#FFFFFF;filter:url(#Adobe_OpacityMaskFilter_00000156561524005484862720000017189535848437479595_);" d="    M101.3,9.5c0,0-0.1,0-0.1,0C101.2,9.4,101.2,9.4,101.3,9.5C101.3,9.4,101.3,9.4,101.3,9.5z"></path>		</mask>		<g class="st41">			<path class="st2" d="M101.4,9.3h-0.3v0.3h0.3V9.3z"></path>			<defs>									<filter id="Adobe_OpacityMaskFilter_00000113316320815995027290000016054639037873745334_" filterUnits="userSpaceOnUse" x="101.1" y="9.3" width="0.3" height="0.3">									</filter>			</defs>							<mask maskUnits="userSpaceOnUse" x="101.1" y="9.3" width="0.3" height="0.3" id="mask29_111_2063_00000088855948528755582330000013077197647573720251_">				<path style="fill:#FFFFFF;filter:url(#Adobe_OpacityMaskFilter_00000113316320815995027290000016054639037873745334_);" d="     M101.4,9.3h-0.3v0.3h0.3V9.3z"></path>			</mask>			<g class="st43">				<rect x="101.1" y="9.3" class="st7" width="0.3" height="0.3"></rect>			</g>		</g>		<path class="st2" d="M96.1,8.6L96.1,8.6L96.1,8.6L96.1,8.6L96.1,8.6z"></path>		<defs>							<filter id="Adobe_OpacityMaskFilter_00000085245626206243674890000015522617544809578172_" filterUnits="userSpaceOnUse" x="96" y="8.4" width="0.2" height="0.3">							</filter>		</defs>					<mask maskUnits="userSpaceOnUse" x="96" y="8.4" width="0.2" height="0.3" id="mask30_111_2063_00000021111344664941415640000005797443737756727949_">			<path style="fill:#FFFFFF;filter:url(#Adobe_OpacityMaskFilter_00000085245626206243674890000015522617544809578172_);" d="    M96.1,8.6L96.1,8.6L96.1,8.6L96.1,8.6L96.1,8.6z"></path>		</mask>		<g class="st45">			<path class="st2" d="M96.3,8.4H96v0.3h0.2V8.4z"></path>			<defs>									<filter id="Adobe_OpacityMaskFilter_00000075853584894246637850000006942836989571285140_" filterUnits="userSpaceOnUse" x="96" y="8.4" width="0.2" height="0.3">									</filter>			</defs>							<mask maskUnits="userSpaceOnUse" x="96" y="8.4" width="0.2" height="0.3" id="mask31_111_2063_00000139285812594989500640000000692481946302376345_">				<path style="fill:#FFFFFF;filter:url(#Adobe_OpacityMaskFilter_00000075853584894246637850000006942836989571285140_);" d="     M96.3,8.4H96v0.3h0.2V8.4z"></path>			</mask>			<g class="st47">				<rect x="96" y="8.4" class="st7" width="0.2" height="0.3"></rect>			</g>		</g>		<path class="st2" d="M100.6,9.8C100.6,9.8,100.5,9.8,100.6,9.8C100.5,9.8,100.5,9.7,100.6,9.8c0.1-0.1,0.2-0.2,0.3-0.2l0.1-0.1   h0.2c0,0,0,0,0,0C101,9.7,100.8,9.7,100.6,9.8C100.6,9.8,100.6,9.8,100.6,9.8"></path>		<defs>							<filter id="Adobe_OpacityMaskFilter_00000121966791345674249600000010791451556879350201_" filterUnits="userSpaceOnUse" x="100.4" y="9.3" width="0.8" height="0.5">							</filter>		</defs>					<mask maskUnits="userSpaceOnUse" x="100.4" y="9.3" width="0.8" height="0.5" id="mask32_111_2063_00000056413686653049515880000003528295975419862966_">			<path style="fill:#FFFFFF;filter:url(#Adobe_OpacityMaskFilter_00000121966791345674249600000010791451556879350201_);" d="    M100.6,9.8C100.6,9.8,100.5,9.8,100.6,9.8C100.5,9.8,100.5,9.7,100.6,9.8c0.1-0.1,0.2-0.2,0.3-0.2l0.1-0.1h0.2c0,0,0,0,0,0    C101,9.7,100.8,9.7,100.6,9.8C100.6,9.8,100.6,9.8,100.6,9.8"></path>		</mask>		<g class="st49">			<path class="st2" d="M101.2,9.3h-0.8v0.5h0.8V9.3z"></path>			<defs>									<filter id="Adobe_OpacityMaskFilter_00000007413197830636070700000008072266897379198632_" filterUnits="userSpaceOnUse" x="100.4" y="9.3" width="0.8" height="0.5">									</filter>			</defs>							<mask maskUnits="userSpaceOnUse" x="100.4" y="9.3" width="0.8" height="0.5" id="mask33_111_2063_00000074432074150908885640000006071721516940378529_">				<path style="fill:#FFFFFF;filter:url(#Adobe_OpacityMaskFilter_00000007413197830636070700000008072266897379198632_);" d="     M101.2,9.3h-0.8v0.5h0.8V9.3z"></path>			</mask>			<g class="st51">				<rect x="100.4" y="9.3" class="st7" width="0.8" height="0.5"></rect>			</g>		</g>		<path class="st2" d="M99.4,8.6c0.1,0,0.1-0.2,0.2-0.2c0,0.1,0,0.1,0.1,0.2c0,0-0.1,0.1-0.1,0.1C99.5,8.6,99.5,8.6,99.4,8.6   C99.5,8.6,99.5,8.6,99.4,8.6C99.4,8.6,99.4,8.6,99.4,8.6"></path>		<defs>							<filter id="Adobe_OpacityMaskFilter_00000114778863578960996470000015758321615253906576_" filterUnits="userSpaceOnUse" x="99.3" y="8.2" width="0.4" height="0.4">							</filter>		</defs>					<mask maskUnits="userSpaceOnUse" x="99.3" y="8.2" width="0.4" height="0.4" id="mask34_111_2063_00000103228705200516002220000007815801710170567816_">			<path style="fill:#FFFFFF;filter:url(#Adobe_OpacityMaskFilter_00000114778863578960996470000015758321615253906576_);" d="    M99.4,8.6c0.1,0,0.1-0.2,0.2-0.2c0,0.1,0,0.1,0.1,0.2c0,0-0.1,0.1-0.1,0.1C99.5,8.6,99.5,8.6,99.4,8.6    C99.5,8.6,99.5,8.6,99.4,8.6C99.4,8.6,99.4,8.6,99.4,8.6"></path>		</mask>		<g class="st53">			<path class="st2" d="M99.7,8.2h-0.4v0.4h0.4V8.2z"></path>			<defs>									<filter id="Adobe_OpacityMaskFilter_00000092428652996762981930000000513033774074714247_" filterUnits="userSpaceOnUse" x="99.3" y="8.2" width="0.4" height="0.4">									</filter>			</defs>							<mask maskUnits="userSpaceOnUse" x="99.3" y="8.2" width="0.4" height="0.4" id="mask35_111_2063_00000137850271218650407620000013151638734669956252_">				<path style="fill:#FFFFFF;filter:url(#Adobe_OpacityMaskFilter_00000092428652996762981930000000513033774074714247_);" d="     M99.7,8.2h-0.4v0.4h0.4V8.2z"></path>			</mask>			<g class="st55">				<rect x="99.3" y="8.2" class="st7" width="0.4" height="0.4"></rect>			</g>		</g>		<path class="st2" d="M99.7,8.3c0-0.1,0.1-0.1,0.1-0.1c0,0,0,0,0.1,0l0,0c0,0-0.1,0.1-0.1,0.1c0,0,0,0,0,0   C99.8,8.3,99.8,8.3,99.7,8.3 M99.7,8.3C99.7,8.3,99.7,8.3,99.7,8.3L99.7,8.3z"></path>		<defs>							<filter id="Adobe_OpacityMaskFilter_00000070812320289473849330000013608004579288182960_" filterUnits="userSpaceOnUse" x="99.6" y="8.1" width="0.4" height="0.3">							</filter>		</defs>					<mask maskUnits="userSpaceOnUse" x="99.6" y="8.1" width="0.4" height="0.3" id="mask36_111_2063_00000088133100248858425980000013333805296026182077_">			<path style="fill:#FFFFFF;filter:url(#Adobe_OpacityMaskFilter_00000070812320289473849330000013608004579288182960_);" d="    M99.7,8.3c0-0.1,0.1-0.1,0.1-0.1c0,0,0,0,0.1,0l0,0c0,0-0.1,0.1-0.1,0.1c0,0,0,0,0,0C99.8,8.3,99.8,8.3,99.7,8.3 M99.7,8.3    C99.7,8.3,99.7,8.3,99.7,8.3L99.7,8.3z"></path>		</mask>		<g class="st57">			<path class="st2" d="M100,8.1h-0.4v0.3h0.4V8.1z"></path>			<defs>									<filter id="Adobe_OpacityMaskFilter_00000176002140590727022740000007814273143712964486_" filterUnits="userSpaceOnUse" x="99.6" y="8.1" width="0.4" height="0.3">									</filter>			</defs>							<mask maskUnits="userSpaceOnUse" x="99.6" y="8.1" width="0.4" height="0.3" id="mask37_111_2063_00000169544880659565506190000006507705036752757120_">				<path style="fill:#FFFFFF;filter:url(#Adobe_OpacityMaskFilter_00000176002140590727022740000007814273143712964486_);" d="     M100,8.1h-0.4v0.3h0.4V8.1z"></path>			</mask>			<g class="st59">				<rect x="99.6" y="8.1" class="st7" width="0.4" height="0.3"></rect>			</g>		</g>		<path class="st2" d="M101.1,9.5C101.1,9.5,101.1,9.5,101.1,9.5c0,0,0-0.1,0-0.1h0c0,0,0.1,0,0.1,0c0,0,0,0,0,0   C101.3,9.5,101.2,9.5,101.1,9.5"></path>		<defs>							<filter id="Adobe_OpacityMaskFilter_00000096775467418671214180000013106411716900663940_" filterUnits="userSpaceOnUse" x="101" y="9.3" width="0.4" height="0.3">							</filter>		</defs>					<mask maskUnits="userSpaceOnUse" x="101" y="9.3" width="0.4" height="0.3" id="mask38_111_2063_00000081644815840081073880000007288555629302118784_">			<path style="fill:#FFFFFF;filter:url(#Adobe_OpacityMaskFilter_00000096775467418671214180000013106411716900663940_);" d="    M101.1,9.5C101.1,9.5,101.1,9.5,101.1,9.5c0,0,0-0.1,0-0.1h0c0,0,0.1,0,0.1,0c0,0,0,0,0,0C101.3,9.5,101.2,9.5,101.1,9.5"></path>		</mask>		<g class="st61">			<path class="st2" d="M101.4,9.3H101v0.3h0.4V9.3z"></path>			<defs>									<filter id="Adobe_OpacityMaskFilter_00000142156417940865539570000015431921745247275958_" filterUnits="userSpaceOnUse" x="101" y="9.3" width="0.4" height="0.3">									</filter>			</defs>							<mask maskUnits="userSpaceOnUse" x="101" y="9.3" width="0.4" height="0.3" id="mask39_111_2063_00000042710060643111713570000017201875130089647755_">				<path style="fill:#FFFFFF;filter:url(#Adobe_OpacityMaskFilter_00000142156417940865539570000015431921745247275958_);" d="     M101.4,9.3H101v0.3h0.4V9.3z"></path>			</mask>			<g class="st63">				<rect x="101" y="9.3" class="st7" width="0.4" height="0.3"></rect>			</g>		</g>		<path class="st2" d="M100.1,9.9L100.1,9.9L100.1,9.9L100.1,9.9L100.1,9.9z"></path>		<defs>							<filter id="Adobe_OpacityMaskFilter_00000181061203315005480220000018339593785536465282_" filterUnits="userSpaceOnUse" x="100.1" y="9.8" width="0.2" height="0.3">							</filter>		</defs>					<mask maskUnits="userSpaceOnUse" x="100.1" y="9.8" width="0.2" height="0.3" id="mask40_111_2063_00000013172299408477278240000017810204719920912781_">			<path style="fill:#FFFFFF;filter:url(#Adobe_OpacityMaskFilter_00000181061203315005480220000018339593785536465282_);" d="    M100.1,9.9L100.1,9.9L100.1,9.9L100.1,9.9L100.1,9.9z"></path>		</mask>		<g class="st65">			<path class="st2" d="M100.3,9.8h-0.2V10h0.2V9.8z"></path>			<defs>									<filter id="Adobe_OpacityMaskFilter_00000064343745762784032880000015931529159597466782_" filterUnits="userSpaceOnUse" x="100.1" y="9.8" width="0.2" height="0.3">									</filter>			</defs>							<mask maskUnits="userSpaceOnUse" x="100.1" y="9.8" width="0.2" height="0.3" id="mask41_111_2063_00000162313941665532128980000007331750117165975487_">				<path style="fill:#FFFFFF;filter:url(#Adobe_OpacityMaskFilter_00000064343745762784032880000015931529159597466782_);" d="     M100.3,9.8h-0.2V10h0.2V9.8z"></path>			</mask>			<g class="st67">				<rect x="100.1" y="9.8" class="st7" width="0.2" height="0.3"></rect>			</g>		</g>		<path class="st2" d="M99.3,8L99.3,8L99.3,8L99.3,8z"></path>		<defs>							<filter id="Adobe_OpacityMaskFilter_00000026844652231928244950000018270777915278533017_" filterUnits="userSpaceOnUse" x="99.2" y="7.8" width="0.2" height="0.3">							</filter>		</defs>					<mask maskUnits="userSpaceOnUse" x="99.2" y="7.8" width="0.2" height="0.3" id="mask42_111_2063_00000018923057764261000540000009937491884378890159_">			<path style="fill:#FFFFFF;filter:url(#Adobe_OpacityMaskFilter_00000026844652231928244950000018270777915278533017_);" d="    M99.3,8L99.3,8L99.3,8L99.3,8z"></path>		</mask>		<g class="st69">			<path class="st2" d="M99.4,7.8h-0.2V8h0.2V7.8z"></path>			<defs>									<filter id="Adobe_OpacityMaskFilter_00000078006782350200739270000002763229488658766993_" filterUnits="userSpaceOnUse" x="99.2" y="7.8" width="0.2" height="0.3">									</filter>			</defs>							<mask maskUnits="userSpaceOnUse" x="99.2" y="7.8" width="0.2" height="0.3" id="mask43_111_2063_00000087378592560660092280000007885903300252680110_">				<path style="fill:#FFFFFF;filter:url(#Adobe_OpacityMaskFilter_00000078006782350200739270000002763229488658766993_);" d="     M99.4,7.8h-0.2V8h0.2V7.8z"></path>			</mask>			<g class="st71">				<rect x="99.2" y="7.8" class="st7" width="0.2" height="0.3"></rect>			</g>		</g>		<path class="st2" d="M99.6,8.3C99.7,8.3,99.7,8.3,99.6,8.3L99.6,8.3C99.7,8.3,99.7,8.3,99.6,8.3z M99.6,8.3   C99.6,8.3,99.6,8.3,99.6,8.3C99.6,8.3,99.6,8.3,99.6,8.3"></path>		<defs>							<filter id="Adobe_OpacityMaskFilter_00000151512709945116411760000013964253681645508483_" filterUnits="userSpaceOnUse" x="99.5" y="8.1" width="0.3" height="0.3">							</filter>		</defs>					<mask maskUnits="userSpaceOnUse" x="99.5" y="8.1" width="0.3" height="0.3" id="mask44_111_2063_00000042727756942961392490000000780888680608568454_">			<path style="fill:#FFFFFF;filter:url(#Adobe_OpacityMaskFilter_00000151512709945116411760000013964253681645508483_);" d="    M99.6,8.3C99.7,8.3,99.7,8.3,99.6,8.3L99.6,8.3C99.7,8.3,99.7,8.3,99.6,8.3z M99.6,8.3C99.6,8.3,99.6,8.3,99.6,8.3    C99.6,8.3,99.6,8.3,99.6,8.3"></path>		</mask>		<g class="st73">			<path class="st2" d="M99.8,8.1h-0.3v0.3h0.3V8.1z"></path>			<defs>									<filter id="Adobe_OpacityMaskFilter_00000103226584421115224840000005477325396582796973_" filterUnits="userSpaceOnUse" x="99.5" y="8.1" width="0.3" height="0.3">									</filter>			</defs>							<mask maskUnits="userSpaceOnUse" x="99.5" y="8.1" width="0.3" height="0.3" id="mask45_111_2063_00000007408106761410739220000008019863515307266952_">				<path style="fill:#FFFFFF;filter:url(#Adobe_OpacityMaskFilter_00000103226584421115224840000005477325396582796973_);" d="     M99.8,8.1h-0.3v0.3h0.3V8.1z"></path>			</mask>			<g class="st75">				<rect x="99.5" y="8.1" class="st7" width="0.3" height="0.3"></rect>			</g>		</g>		<path class="st2" d="M96.1,11.7L96.1,11.7L96.1,11.7L96.1,11.7L96.1,11.7z"></path>		<defs>							<filter id="Adobe_OpacityMaskFilter_00000106134060227908693170000003917717642074328508_" filterUnits="userSpaceOnUse" x="96" y="11.5" width="0.2" height="0.3">							</filter>		</defs>					<mask maskUnits="userSpaceOnUse" x="96" y="11.5" width="0.2" height="0.3" id="mask46_111_2063_00000052798231997840658990000002028407790290776716_">			<path style="fill:#FFFFFF;filter:url(#Adobe_OpacityMaskFilter_00000106134060227908693170000003917717642074328508_);" d="    M96.1,11.7L96.1,11.7L96.1,11.7L96.1,11.7L96.1,11.7z"></path>		</mask>		<g class="st77">			<path class="st2" d="M96.3,11.5H96v0.3h0.2V11.5z"></path>			<defs>									<filter id="Adobe_OpacityMaskFilter_00000163039852471586098400000013357395657654874267_" filterUnits="userSpaceOnUse" x="96" y="11.5" width="0.2" height="0.3">									</filter>			</defs>							<mask maskUnits="userSpaceOnUse" x="96" y="11.5" width="0.2" height="0.3" id="mask47_111_2063_00000047759408333714878360000012472031939228085160_">				<path style="fill:#FFFFFF;filter:url(#Adobe_OpacityMaskFilter_00000163039852471586098400000013357395657654874267_);" d="     M96.3,11.5H96v0.3h0.2V11.5z"></path>			</mask>			<g class="st79">				<rect x="96" y="11.5" class="st7" width="0.2" height="0.3"></rect>			</g>		</g>		<path class="st2" d="M96.6,17.6L96.6,17.6L96.6,17.6L96.6,17.6L96.6,17.6z"></path>		<defs>							<filter id="Adobe_OpacityMaskFilter_00000171692926348599192210000013154140953559728273_" filterUnits="userSpaceOnUse" x="96.4" y="17.4" width="0.2" height="0.3">							</filter>		</defs>					<mask maskUnits="userSpaceOnUse" x="96.4" y="17.4" width="0.2" height="0.3" id="mask48_111_2063_00000034803132327212093540000017441452367222658489_">			<path style="fill:#FFFFFF;filter:url(#Adobe_OpacityMaskFilter_00000171692926348599192210000013154140953559728273_);" d="    M96.6,17.6L96.6,17.6L96.6,17.6L96.6,17.6L96.6,17.6z"></path>		</mask>		<g class="st81">			<path class="st2" d="M96.6,17.4h-0.2v0.3h0.2V17.4z"></path>			<defs>									<filter id="Adobe_OpacityMaskFilter_00000022530091140813731130000017161185631002580157_" filterUnits="userSpaceOnUse" x="96.4" y="17.4" width="0.2" height="0.3">									</filter>			</defs>							<mask maskUnits="userSpaceOnUse" x="96.4" y="17.4" width="0.2" height="0.3" id="mask49_111_2063_00000128450852646381513260000014752535185120213916_">				<path style="fill:#FFFFFF;filter:url(#Adobe_OpacityMaskFilter_00000022530091140813731130000017161185631002580157_);" d="     M96.6,17.4h-0.2v0.3h0.2V17.4z"></path>			</mask>			<g class="st83">				<rect x="96.4" y="17.4" class="st7" width="0.2" height="0.3"></rect>			</g>		</g>		<path class="st2" d="M94.1,27.3L94.1,27.3L94.1,27.3L94.1,27.3L94.1,27.3z"></path>		<defs>							<filter id="Adobe_OpacityMaskFilter_00000065795039414989305120000011728584201565445252_" filterUnits="userSpaceOnUse" x="94" y="27.1" width="0.2" height="0.3">							</filter>		</defs>					<mask maskUnits="userSpaceOnUse" x="94" y="27.1" width="0.2" height="0.3" id="mask50_111_2063_00000145760555590410926720000018407745225163573944_">			<path style="fill:#FFFFFF;filter:url(#Adobe_OpacityMaskFilter_00000065795039414989305120000011728584201565445252_);" d="    M94.1,27.3L94.1,27.3L94.1,27.3L94.1,27.3L94.1,27.3z"></path>		</mask>		<g class="st85">			<path class="st2" d="M94.2,27.1H94v0.3h0.2V27.1z"></path>			<defs>									<filter id="Adobe_OpacityMaskFilter_00000060021686176604625520000000800860373546990762_" filterUnits="userSpaceOnUse" x="94" y="27.1" width="0.2" height="0.3">									</filter>			</defs>							<mask maskUnits="userSpaceOnUse" x="94" y="27.1" width="0.2" height="0.3" id="mask51_111_2063_00000083063157027641367740000014190840174520244150_">				<path style="fill:#FFFFFF;filter:url(#Adobe_OpacityMaskFilter_00000060021686176604625520000000800860373546990762_);" d="     M94.2,27.1H94v0.3h0.2V27.1z"></path>			</mask>			<g class="st87">				<rect x="94" y="27.1" class="st7" width="0.2" height="0.3"></rect>			</g>		</g>	</g></g></svg>