<svg xmlns="http://www.w3.org/2000/svg" width="38" height="38" viewBox="0 0 38 38" fill="none"><mask id="mask0_360_2" style="mask-type:luminance" maskUnits="userSpaceOnUse" x="4" y="3" width="31" height="31"><path d="M20.2832 33.7288H18.3265C10.4475 33.7288 4.00201 27.3017 4.00201 19.4475V17.868C4.00201 10.132 10.3508 3.80237 18.1101 3.80237H20.4861C27.9292 3.80237 34.0189 10.2316 34.0189 17.6522L34.0314 19.1405C34.0314 26.6722 27.8377 33.7288 20.2832 33.7288Z" fill="white"></path></mask><g mask="url(#mask0_360_2)"><path d="M32.0133 16.9345C32.0133 19.516 29.0756 21.8672 25.8508 21.8672H19.5759H14.2674C12.9036 21.8672 11.7947 22.7124 11.7947 23.7506C11.7947 24.7888 12.9036 25.634 14.2674 25.634H42.5803V24.7079H14.2674C13.4445 24.7079 12.7236 24.2609 12.7236 23.7506C12.7236 23.2403 13.4456 22.7933 14.2674 22.7933H17.9999H25.8508C27.6899 22.7933 29.4584 22.1586 30.8305 21.0053C32.1725 19.8779 32.9423 18.3938 32.9423 16.9345C32.9423 15.4753 32.1735 13.9829 30.8326 12.8451C29.4574 11.6784 27.6889 10.9544 25.8518 10.9544H-2.03155V11.8806H25.8508C29.3783 11.8806 32.0133 14.5875 32.0133 16.9345Z" fill="black"></path><path d="M7.75529 23.4778C7.75529 21.0001 10.7773 18.8273 14.2226 18.8273H25.8518C27.1667 18.8273 28.2361 17.9779 28.2361 16.9325C28.2361 15.887 27.1667 15.0376 25.8518 15.0376H-2.50591V15.9638H25.8518C26.6414 15.9638 27.3071 16.4077 27.3071 16.9325C27.3071 17.4573 26.6403 17.9012 25.8518 17.9012H14.2226C10.2134 17.9012 6.82738 20.4546 6.82738 23.483C6.82738 26.7801 10.1937 29.7691 14.1789 29.7691H42.4909V28.8429H14.1789C10.6972 28.8429 7.75634 26.277 7.75634 23.4768L7.75529 23.4778Z" fill="black"></path><path d="M9.39787 23.5276V23.5193C9.39787 21.6929 11.6074 20.1507 14.2216 20.1507H25.858C26.8796 20.1507 27.8585 19.8136 28.6147 19.2007C29.3752 18.5846 29.8111 17.7549 29.8111 16.9231C29.8111 16.0914 29.3752 15.2617 28.6147 14.6456C27.8595 14.0337 26.8806 13.6956 25.858 13.6956H-7.39101V14.6217H25.858C27.4694 14.6217 28.8821 15.6973 28.8821 16.9231C28.8821 18.149 27.4694 19.2245 25.858 19.2245H14.2216C12.7247 19.2245 11.3005 19.6633 10.2124 20.4587C9.10452 21.2687 8.46891 22.3836 8.46891 23.5193V23.5276C8.46891 25.8134 10.668 28.3627 14.2216 28.3627H42.5346V27.4366H14.2216C11.2423 27.4366 9.39787 25.3685 9.39787 23.5276Z" fill="black"></path><path d="M14.2216 26.0375C12.399 26.0375 11.0373 24.7908 11.0373 23.6759V23.595C11.0373 22.4469 12.4958 21.4772 14.2216 21.4772H25.8518C28.7926 21.4772 31.3725 19.3532 31.3725 16.9325C31.3725 14.5118 28.8155 12.309 25.8747 12.309L-2.03051 12.2872L-2.00866 13.2351H25.8747C28.5024 13.2351 30.4446 15.215 30.4446 16.9325C30.4446 19.0036 28.0207 20.551 25.8528 20.551H14.2226C11.9549 20.551 10.1094 21.9159 10.1094 23.595V23.6759C10.1094 25.4266 12.0318 26.9636 14.2226 26.9636H42.6251V26.0375H14.2216Z" fill="black"></path><path d="M24.0448 36.9709C24.0448 39.5524 21.1071 41.9035 17.8823 41.9035H11.6074H6.29892C4.93513 41.9035 3.8262 42.7488 3.8262 43.787C3.8262 44.8251 4.93513 45.6704 6.29892 45.6704H34.6119V44.7442H6.29892C5.47606 44.7442 4.75516 44.2972 4.75516 43.787C4.75516 43.2767 5.4771 42.8297 6.29892 42.8297H10.0314H17.8823C19.7215 42.8297 21.4899 42.195 22.8621 41.0417C24.204 39.9143 24.9738 38.4302 24.9738 36.9709C24.9738 35.5117 24.205 34.0192 22.8641 32.8815C21.4889 31.7147 19.7205 31.0728 17.8833 31.0728H-10V31.9989H17.8823C21.4098 31.9989 24.0448 34.6239 24.0448 36.972V36.9709Z" fill="black"></path><path d="M6.25315 46.0738C4.4306 46.0738 3.06888 44.8272 3.06888 43.7123V43.6314C3.06888 42.4833 4.52734 41.5136 6.25315 41.5136H7.68455H17.8833C20.8242 41.5136 23.404 39.3895 23.404 36.9688C23.404 34.5482 20.8242 32.4055 17.8833 32.4055H-10V33.3316H17.8833C20.5111 33.3316 22.4751 35.2524 22.4751 36.9699C22.4751 39.041 20.0513 40.5884 17.8833 40.5884H11.5606H6.25315C3.98536 40.5884 2.13993 41.9533 2.13993 43.6324V43.7133C2.13993 45.464 4.06234 47.001 6.25315 47.001H34.6556V46.0749H6.25315V46.0738Z" fill="black"></path><path d="M34.3893 -3.10182C34.3893 -0.5204 31.4516 1.83078 28.2267 1.83078H21.9518H16.6433C15.2795 1.83078 14.1706 2.67604 14.1706 3.71421C14.1706 4.75238 15.2795 5.59765 16.6433 5.59765H44.9563V4.67149H16.6433C15.8205 4.67149 15.0996 4.22448 15.0996 3.71421C15.0996 3.20394 15.8215 2.75694 16.6433 2.75694H20.3758H28.2267C30.0659 2.75694 31.8344 2.12222 33.2065 0.968923C34.5484 -0.158441 35.3182 -1.64258 35.3182 -3.10182C35.3182 -4.56107 34.5495 -6.0535 33.2086 -7.19124C31.8333 -8.35801 30.0649 -9 28.2278 -9H0.344421V-8.07384H28.2267C31.7543 -8.07384 34.3893 -5.44886 34.3893 -3.10079V-3.10182Z" fill="black"></path><path d="M10.1313 3.44144C10.1313 0.963729 13.1532 -1.20906 16.5986 -1.20906H21.906H28.2278C29.5427 -1.20906 30.612 -2.05848 30.612 -3.10391C30.612 -4.14934 29.5427 -4.99875 28.2278 -4.99875H-0.129944V-4.07259H28.2278C29.0173 -4.07259 29.6831 -3.6287 29.6831 -3.10391C29.6831 -2.57912 29.0163 -2.13522 28.2278 -2.13522H17.6742H16.5986C12.5894 -2.13522 9.20334 0.418197 9.20334 3.44663C9.20334 6.74367 12.5696 9.52941 16.5549 9.52941H44.8668V8.60325H16.5549C13.0731 8.60325 10.1323 6.2417 10.1323 3.4404L10.1313 3.44144Z" fill="black"></path><path d="M11.7738 3.49227V3.48397C11.7738 1.65758 13.9834 0.115364 16.5976 0.115364H22.1599H28.234C29.2555 0.115364 30.2344 -0.221704 30.9907 -0.83465C31.7511 -1.45071 32.187 -2.28041 32.187 -3.11219C32.187 -3.94397 31.7511 -4.77368 30.9907 -5.38974C30.2355 -6.00165 29.2566 -6.33975 28.234 -6.33975H-5.01504V-5.41359H28.234C29.8454 -5.41359 31.2581 -4.33809 31.2581 -3.11219C31.2581 -1.8863 29.8454 -0.810796 28.234 -0.810796H18.6531H16.5965C15.0996 -0.810796 13.6755 -0.373126 12.5873 0.423392C11.4794 1.23339 10.8438 2.34831 10.8438 3.48397V3.49227C10.8438 5.77811 13.043 8.24545 16.5965 8.24545H44.9095V7.31929H16.5976C13.6182 7.31929 11.7738 5.33214 11.7738 3.49123V3.49227Z" fill="black"></path><path d="M16.5976 6.00212C14.775 6.00212 13.4133 4.75548 13.4133 3.64056V3.55967C13.4133 2.41156 14.8718 1.44184 16.5976 1.44184H18.029H28.2278C31.1686 1.44184 33.7485 -0.682205 33.7485 -3.10287C33.7485 -5.52354 31.1686 -7.66626 28.2278 -7.66626H0.344421V-6.7401H28.2278C30.8555 -6.7401 32.8195 -4.81933 32.8195 -3.10184C32.8195 -1.03068 30.3957 0.516721 28.2278 0.516721H21.905H16.5976C14.3298 0.516721 12.4843 1.88159 12.4843 3.56071V3.6416C12.4843 5.39228 14.4068 6.92931 16.5976 6.92931H45V6.00315H16.5976V6.00212Z" fill="black"></path></g><path d="M20.4382 37.3277H18.2433C8.40025 37.3277 0.392273 29.3438 0.392273 19.5305V17.758C0.392273 8.07847 8.29103 0.202484 18.0009 0.202484H20.6671C25.1694 0.202484 29.4324 2.04547 32.6707 5.3923C35.8207 8.64682 37.6276 13.0629 37.6297 17.5081L37.6432 19.1862C37.6432 23.7132 35.8196 28.288 32.6406 31.7396C29.32 35.3437 24.9873 37.3287 20.4393 37.3287L20.4382 37.3277ZM17.952 3.04526C14.0416 3.04526 10.3528 4.57607 7.56492 7.35455C4.77804 10.1341 3.24261 13.8117 3.24261 17.7103V19.5658C3.24261 23.5317 4.80405 27.2737 7.63982 30.101C10.4756 32.9282 14.2278 34.4849 18.2069 34.4849H20.5048C24.2113 34.4849 27.7732 32.8338 30.5361 29.8354C33.2387 26.9014 34.7898 23.0298 34.7918 19.2131L34.7773 17.4573C34.7773 9.64558 28.3505 3.0463 20.7441 3.0463H17.953L17.952 3.04526Z" fill="black"></path></svg>