<svg xmlns="http://www.w3.org/2000/svg" width="212" height="57" viewBox="0 0 212 57" fill="none"><mask id="mask0_165_13" style="mask-type:luminance" maskUnits="userSpaceOnUse" x="5" y="5" width="46" height="46"><path d="M29.9058 50.6704H26.9652C15.1196 50.6704 5.42813 40.987 5.42813 29.1513V26.7711C5.42813 15.1139 14.9729 5.57715 26.6397 5.57715H30.2122C41.4019 5.57715 50.5589 15.2638 50.5589 26.4458L50.5781 28.689C50.5781 40.0384 41.2663 50.6704 29.9074 50.6704H29.9058Z" fill="white"></path></mask><g mask="url(#mask0_165_13)"><path d="M47.5416 25.3635C47.5416 29.2534 43.1251 32.7959 38.2761 32.7959H28.8415H20.8604C18.8101 32.7959 17.1427 34.0697 17.1427 35.6336C17.1427 37.1976 18.8101 38.4714 20.8604 38.4714H63.4287V37.0764H20.8604C19.6239 37.0764 18.5389 36.402 18.5389 35.6336C18.5389 34.8652 19.6239 34.1908 20.8604 34.1908H26.4721H38.2761C41.0412 34.1908 43.6995 33.2343 45.7625 31.4965C47.7809 29.7971 48.9377 27.5619 48.9377 25.3635C48.9377 23.165 47.7809 20.9171 45.7657 19.2017C43.6979 17.4433 41.0397 16.3528 38.2761 16.3528H-3.64438V17.7477H38.2761C43.5798 17.7477 47.5416 21.8258 47.5416 25.3635Z" fill="#040000"></path><path d="M11.07 35.2237C11.07 31.4899 15.6142 28.2153 20.7934 28.2153H38.2777C40.2547 28.2153 41.863 26.9352 41.863 25.36C41.863 23.7849 40.2547 22.5063 38.2777 22.5063H-4.35757V23.9013H38.2777C39.4648 23.9013 40.4669 24.5693 40.4669 25.36C40.4669 26.1508 39.4648 26.8188 38.2777 26.8188H20.7934C14.767 26.8188 9.6739 30.6673 9.6739 35.23C9.6739 40.1977 14.7351 44.7031 20.7264 44.7031H63.2931V43.3081H20.7264C15.4914 43.3081 11.07 39.442 11.07 35.2221V35.2237Z" fill="#040000"></path><path d="M13.5384 35.2986V35.2859C13.5384 32.5342 16.8604 30.2098 20.7918 30.2098H38.2873C39.8238 30.2098 41.295 29.7012 42.431 28.7797C43.5734 27.8519 44.2292 26.6004 44.2292 25.3473C44.2292 24.0942 43.5734 22.8428 42.431 21.9149C41.295 20.9918 39.8223 20.4849 38.2873 20.4849H-11.7036V21.8798H38.2873C40.7094 21.8798 42.8347 23.4996 42.8347 25.3473C42.8347 27.1951 40.7094 28.8148 38.2873 28.8148H20.7918C18.5405 28.8148 16.4008 29.4748 14.7638 30.6737C13.098 31.8933 12.1422 33.5752 12.1422 35.2859V35.2986C12.1422 38.7438 15.4483 42.5843 20.7918 42.5843H63.3601V41.1894H20.7918C16.3115 41.1894 13.5384 38.0726 13.5384 35.2986Z" fill="#040000"></path><path d="M20.7918 39.0803C18.0522 39.0803 16.0035 37.2023 16.0035 35.5219V35.3992C16.0035 33.6694 18.1958 32.2075 20.7918 32.2075H38.2777C42.699 32.2075 46.5779 29.0078 46.5779 25.3602C46.5779 21.7126 42.7326 18.3933 38.3112 18.3933L-3.64438 18.3599L-3.61087 19.7883H38.3112C42.2619 19.7883 45.1818 22.7711 45.1818 25.3602C45.1818 28.4801 41.5375 30.8125 38.2777 30.8125H20.7918C17.3821 30.8125 14.6074 32.8691 14.6074 35.3992V35.5219C14.6074 38.1604 17.497 40.4753 20.7918 40.4753H63.4941V39.0803H20.7918Z" fill="#040000"></path><path d="M35.5605 55.5552C35.5605 59.4451 31.144 62.9875 26.295 62.9875H16.8604H8.87933C6.82901 62.9875 5.16164 64.2614 5.16164 65.8253C5.16164 67.3893 6.82901 68.6631 8.87933 68.6631H51.4476V67.2681H8.87933C7.64276 67.2681 6.55777 66.5937 6.55777 65.8253C6.55777 65.0569 7.64276 64.3825 8.87933 64.3825H14.491H26.295C29.0601 64.3825 31.7184 63.426 33.7814 61.6882C35.7998 59.9888 36.9566 57.7536 36.9566 55.5552C36.9566 53.3567 35.7998 51.1088 33.7846 49.3934C31.7168 47.6349 29.0585 46.6672 26.295 46.6672H-15.6255V48.0622H26.295C31.5987 48.0622 35.5605 52.0175 35.5605 55.5552Z" fill="#040000"></path><path d="M8.81073 69.2721C6.07113 69.2721 4.02242 67.3941 4.02242 65.7137V65.591C4.02242 63.8612 6.21473 62.3993 8.81073 62.3993H10.9632H26.2966C30.7179 62.3993 34.5968 59.1997 34.5968 55.552C34.5968 51.9044 30.7179 48.676 26.2966 48.676H-15.6255V50.071H26.2966C30.2473 50.071 33.2007 52.9646 33.2007 55.552C33.2007 58.672 29.5564 61.0043 26.2966 61.0043H16.7902H8.81073C5.40099 61.0043 2.62629 63.0609 2.62629 65.591V65.7137C2.62629 68.3522 5.51587 70.6671 8.81073 70.6671H51.5131V69.2721H8.81073Z" fill="#040000"></path><path d="M51.1142 -4.8252C51.1142 -0.935241 46.6976 2.60718 41.8487 2.60718H32.414H24.433C22.3827 2.60718 20.7153 3.88098 20.7153 5.44494C20.7153 7.00889 22.3827 8.2827 24.433 8.2827H67.0013V6.88773H24.433C23.1964 6.88773 22.1114 6.21337 22.1114 5.44494C22.1114 4.67651 23.1964 4.00214 24.433 4.00214H30.0446H41.8487C44.6138 4.00214 47.272 3.0456 49.3351 1.30787C51.3535 -0.391603 52.5103 -2.62674 52.5103 -4.8252C52.5103 -7.02367 51.3535 -9.27156 49.3383 -10.987C47.2704 -12.7454 44.6122 -13.7131 41.8487 -13.7131H-0.0734253V-12.3182H41.8471C47.1508 -12.3182 51.1126 -8.36284 51.1126 -4.8252H51.1142Z" fill="#040000"></path><path d="M14.6425 5.03359C14.6425 1.29986 19.1867 -1.97472 24.366 -1.97472H32.3454H41.8502C43.8272 -1.97472 45.4355 -3.2549 45.4355 -4.82843C45.4355 -6.40195 43.8272 -7.68213 41.8502 -7.68213H-0.785065V-6.28716H41.8502C43.0374 -6.28716 44.0394 -5.61917 44.0394 -4.82843C44.0394 -4.03768 43.0374 -3.36969 41.8502 -3.36969H25.9823H24.366C18.3395 -3.36969 13.2464 0.478824 13.2464 5.04156C13.2464 10.0092 18.3076 14.2069 24.2989 14.2069H66.8656V12.8119H24.2989C19.0639 12.8119 14.6425 9.25356 14.6425 5.03359Z" fill="#040000"></path><path d="M17.1109 5.11013V5.09738C17.1109 2.34571 20.4329 0.0212955 24.3644 0.0212955H32.7284H41.8614C43.398 0.0212955 44.8691 -0.487269 46.0051 -1.40874C47.1475 -2.3366 47.8033 -3.58808 47.8033 -4.84116C47.8033 -6.09424 47.1475 -7.34572 46.0051 -8.27357C44.8691 -9.19664 43.3964 -9.70361 41.8614 -9.70361H-8.13109V-8.30865H41.8598C44.2819 -8.30865 46.4072 -6.68889 46.4072 -4.84116C46.4072 -2.99343 44.2819 -1.37367 41.8598 -1.37367H27.455H24.3628C22.1114 -1.37367 19.9717 -0.713653 18.3347 0.485221C16.6689 1.70482 15.7132 3.38675 15.7132 5.09738V5.11013C15.7132 8.5553 19.0192 12.2731 24.3628 12.2731H66.9311V10.8781H24.3644C19.884 10.8781 17.1109 7.88412 17.1109 5.11013Z" fill="#040000"></path><path d="M24.3644 8.89149C21.6248 8.89149 19.5761 7.01347 19.5761 5.33313V5.21037C19.5761 3.48062 21.7684 2.01869 24.3644 2.01869H26.5168H41.8503C46.2716 2.01869 50.1504 -1.18096 50.1504 -4.8286C50.1504 -8.47624 46.2716 -11.7046 41.8503 -11.7046H-0.0734253V-10.3096H41.8487C45.7993 -10.3096 48.7527 -7.41606 48.7527 -4.8286C48.7527 -1.70866 45.1084 0.623725 41.8487 0.623725H32.3422H24.3628C20.953 0.623725 18.1783 2.6803 18.1783 5.21037V5.33313C18.1783 7.97161 21.0679 10.2865 24.3628 10.2865H67.0651V8.89149H24.3644Z" fill="#040000"></path></g><path d="M30.1388 56.094H26.8391C12.0402 56.094 0 44.0638 0 29.2772V26.6068C0 12.021 11.8759 0.155029 26.4738 0.155029H30.4834C37.2534 0.155029 43.6629 2.93221 48.531 7.97481C53.2666 12.8787 55.9839 19.5331 55.9871 26.2305L56.0078 28.759C56.0078 35.5792 53.2666 42.4743 48.4863 47.6732C43.4937 53.1032 36.979 56.094 30.1404 56.094H30.1388ZM26.4019 4.43718C20.5223 4.43718 14.9761 6.74405 10.7845 10.9305C6.59291 15.1186 4.28571 20.6602 4.28571 26.535V29.3314C4.28571 35.3082 6.6328 40.9454 10.8978 45.2053C15.1611 49.4651 20.8031 51.8118 26.7849 51.8118H30.2393C35.811 51.8118 41.1674 49.3232 45.3207 44.8051C49.3846 40.3843 51.7173 34.5509 51.7189 28.7989L51.6966 26.154C51.6966 14.3837 42.0338 4.43877 30.5967 4.43877H26.4004L26.4019 4.43718Z" fill="#040000"></path><path d="M78.0532 22.54H72.8548L68.8707 16.3671V22.54H64.6951V6.49072H71.1922C72.0874 6.49072 72.8676 6.62145 73.5361 6.8845C74.2031 7.14755 74.7536 7.50466 75.1876 7.95902C75.62 8.41338 75.947 8.93789 76.1672 9.53414C76.3874 10.1304 76.4975 10.7697 76.4975 11.4504C76.4975 12.6716 76.2023 13.6601 75.6136 14.4205C75.0232 15.1794 74.1536 15.6943 73.0032 15.9637L78.0516 22.5416L78.0532 22.54ZM68.8707 13.6632H69.6589C70.4822 13.6632 71.1141 13.4927 71.5544 13.1531C71.9948 12.8119 72.215 12.3225 72.215 11.6848C72.215 11.0471 71.9948 10.5561 71.5544 10.2165C71.1141 9.87531 70.4822 9.70632 69.6589 9.70632H68.8707V13.6648V13.6632Z" fill="#040000"></path><path d="M90.4955 19.7517H84.5297L83.5707 22.54H79.1175L85.2317 6.49072H89.7903L95.9045 22.54H91.4513L90.4923 19.7517H90.4955ZM89.3882 16.5807L87.5134 11.2368L85.6386 16.5807H89.3882Z" fill="#040000"></path><path d="M97.1953 22.54L99.9222 6.49072H104.055L107.271 15.0486L110.467 6.49072H114.601L117.328 22.54H113.173L111.788 13.3013L107.996 22.54H106.335L102.734 13.3013L101.349 22.54H97.1937H97.1953Z" fill="#040000"></path><path d="M128.842 10.0236H123.878V12.7051H128.566V16.2395H123.878V19.0072H128.842V22.54H119.702V6.49072H128.842V10.0236Z" fill="#040000"></path><path d="M131.578 22.54V6.49072H135.754L143.467 16.3033V6.49072H147.622V22.54H143.467L135.754 12.7274V22.54H131.578Z" fill="#040000"></path><path d="M79.2355 34.712C77.9431 33.1369 76.3459 32.3478 74.4472 32.3478C73.6111 32.3478 72.8373 32.4992 72.1241 32.8037C71.4108 33.1082 70.7981 33.5211 70.286 34.0424C69.7722 34.5654 69.3685 35.1871 69.0749 35.9077C68.7797 36.6299 68.6329 37.4079 68.6329 38.2433C68.6329 39.0787 68.7797 39.887 69.0749 40.6076C69.3701 41.3298 69.777 41.9563 70.3003 42.4872C70.8221 43.0196 71.4348 43.4357 72.1384 43.7403C72.8421 44.0448 73.6016 44.1962 74.4185 44.1962C76.2039 44.1962 77.8107 43.4373 79.2355 41.918V48.5262L78.6659 48.7255C77.8107 49.0284 77.0129 49.2532 76.271 49.395C75.5306 49.5369 74.7982 49.6087 74.077 49.6087C72.5948 49.6087 71.1747 49.3281 69.8153 48.7685C68.4558 48.2089 67.2592 47.4198 66.2236 46.4042C65.1881 45.3887 64.3568 44.1835 63.7297 42.7869C63.1027 41.3919 62.7884 39.8678 62.7884 38.2162C62.7884 36.5645 63.0963 35.05 63.7154 33.6742C64.3329 32.2983 65.1594 31.1106 66.1949 30.1142C67.2304 29.1178 68.4319 28.3398 69.8009 27.7786C71.1683 27.2191 72.6027 26.9385 74.1042 26.9385C74.9594 26.9385 75.8003 27.0293 76.6268 27.2095C77.4533 27.3896 78.3229 27.6702 79.2355 28.0497V34.7136V34.712Z" fill="#040000"></path><path d="M89.4967 35.8234H97.5639V27.5349H103.152V49.0094H97.5639V40.1518H89.4967V49.0094H83.909V27.5349H89.4967V35.8234Z" fill="#040000"></path><path d="M113.812 27.5349V49.0094H108.226V27.5349H113.812Z" fill="#040000"></path><path d="M124.472 36.3926L131.285 27.5349H138.182L129.66 37.703L138.982 49.0094H131.743L124.473 39.6958V49.0094H118.887V27.5349H124.473V36.3926H124.472Z" fill="#040000"></path><path d="M160.913 49.0094L164.562 27.5349H170.092L174.397 38.9848L178.673 27.5349H184.204L187.853 49.0094H182.294L180.441 36.6492L175.367 49.0094H173.145L168.328 36.6492L166.475 49.0094H160.916H160.913Z" fill="#040000"></path><path d="M149.597 49.7585C144.376 49.7585 140.131 45.5146 140.131 40.2998L140.174 27.5283L145.504 27.5459L145.461 40.3078C145.461 42.578 147.317 44.4321 149.597 44.4321C151.877 44.4321 153.734 42.578 153.734 40.2998V27.5443H159.065V40.2998C159.065 45.5162 154.818 49.7585 149.599 49.7585H149.597Z" fill="#040000"></path><path d="M200.512 49.7523C194.177 49.7523 189.024 44.6029 189.024 38.2737C189.024 31.9446 194.177 26.7952 200.512 26.7952C206.846 26.7952 212 31.9446 212 38.2737C212 44.6029 206.846 49.7523 200.512 49.7523ZM200.512 32.12C197.116 32.12 194.355 34.8796 194.355 38.2722C194.355 41.6647 197.116 44.4244 200.512 44.4244C203.907 44.4244 206.669 41.6647 206.669 38.2722C206.669 34.8796 203.907 32.12 200.512 32.12Z" fill="#040000"></path></svg>